<?xml version="1.0" encoding="UTF-8"?>
<svg xmlns="http://www.w3.org/2000/svg" xml:space="preserve" width="70mm" height="70mm" style="shape-rendering:geometricPrecision; text-rendering:geometricPrecision; image-rendering:optimizeQuality; fill-rule:evenodd; clip-rule:evenodd"
viewBox="0 0 70 70">
 <defs>
  <style type="text/css">
   <![CDATA[
    .str0 {stroke:#70A303;stroke-width:1.4111}
    .fil0 {fill:#73AD10}
    .fil1 {fill:#82C213}
    .fil4 {fill:white;fill-rule:nonzero}
    .fil2 {fill:#669403;fill-rule:nonzero}
    .fil3 {fill:#70A303;fill-rule:nonzero}
   ]]>
  </style>
 </defs>
 <g id="Capa_x0020_1">
  <metadata id="CorelCorpID_0Corel-Layer"/>
  <g id="_273900976">
   <path id="_272708416" class="fil0 str0" d="M4.048 14.414c0,-5.7013 4.6647,-10.366 10.366,-10.366 17.1793,0 34.3587,0 51.538,0 0,20.6346 0,41.2694 0,61.904 -20.6346,0 -41.2694,0 -61.904,0l0 -51.538z"/>
   <path id="_272857928" class="fil1" d="M4.8842 28.0357l0 -13.1694c0,-5.5473 4.5387,-10.086 10.086,-10.086 16.7151,0 33.4305,0 50.1456,0 0,7.9518 0,15.9038 0,23.8556 -0.0434,0.0316 -0.0867,0.0633 -0.1306,0.0945 -6.7075,4.7796 -18.0661,6.6728 -30.9465,6.6728 -11.85,0 -23.5351,-2.6611 -29.1545,-7.3675z"/>
   <path id="_273900712" class="fil2" d="M19.1965 33.9516c0.0374,0.4697 0.0564,0.9706 0.0564,1.5023 0,2.5861 -0.4491,4.4461 -1.344,5.5799 -0.7389,0.9332 -1.7709,1.3982 -3.099,1.3982 -1.3281,0 -2.4014,-0.5096 -3.2167,-1.5351 -0.8153,-1.0224 -1.223,-2.8473 -1.223,-5.4717 0,-1.5878 0.1708,-2.9011 0.5111,-3.9397 0.7733,0.3181 1.583,0.618 2.4242,0.8994 -0.1273,0.6941 -0.1931,1.7166 -0.1931,3.069 0,1.6052 0.0828,2.7071 0.242,3.3059 0.1625,0.602 0.3663,1.0001 0.6115,1.2007 0.2485,0.1975 0.5287,0.2994 0.844,0.2994 0.3185,0 0.602,-0.1019 0.8504,-0.3058 0.2484,-0.2006 0.4427,-0.5637 0.5797,-1.086 0.1783,-0.672 0.2707,-1.809 0.2707,-3.4142 0,-0.8579 -0.0235,-1.5722 -0.0698,-2.1431 0.8943,0.2321 1.814,0.446 2.7556,0.6408zm10.6836 1.3419l0.0008 0.1604c0,2.5861 -0.4491,4.4461 -1.344,5.5799 -0.7389,0.9332 -1.7709,1.3982 -3.099,1.3982 -1.3281,0 -2.4014,-0.5096 -3.2167,-1.5351 -0.8153,-1.0224 -1.223,-2.8473 -1.223,-5.4717 0,-0.3909 0.0102,-0.7653 0.0309,-1.1229 0.8911,0.157 1.7981,0.2975 2.718,0.4216 -0.0047,0.2315 -0.0067,0.475 -0.0067,0.73 0,1.6052 0.0828,2.7071 0.242,3.3059 0.1625,0.602 0.3663,1.0001 0.6115,1.2007 0.2485,0.1975 0.5287,0.2994 0.844,0.2994 0.3185,0 0.602,-0.1019 0.8504,-0.3058 0.2484,-0.2006 0.4427,-0.5637 0.5797,-1.086 0.1783,-0.672 0.2707,-1.809 0.2707,-3.4142 0,-0.1205 -0.0007,-0.2383 -0.0016,-0.3532 0.9072,0.08 1.8224,0.1444 2.743,0.1928zm8.463 6.906l-2.6211 0 0 -6.8076c0.8821,-0.0116 1.756,-0.0327 2.6211,-0.0632l0 6.8708zm9.5738 0l-2.6211 0 0 -7.3519c0.8885,-0.0949 1.7627,-0.2025 2.6211,-0.3233l0 7.6752zm12.2446 -10.8268c0.3656,1.0567 0.5492,2.4173 0.5492,4.0812 0,2.5861 -0.4491,4.4461 -1.344,5.5799 -0.7389,0.9332 -1.7709,1.3982 -3.099,1.3982 -1.3281,0 -2.4014,-0.5096 -3.2167,-1.5351 -0.8153,-1.0224 -1.223,-2.8473 -1.223,-5.4717 0,-0.5607 0.0211,-1.0873 0.0636,-1.5795 0.9465,-0.1928 1.8681,-0.4049 2.7627,-0.6369 -0.0559,0.6053 -0.0841,1.3535 -0.0841,2.2451 0,1.6052 0.0828,2.7071 0.242,3.3059 0.1625,0.602 0.3663,1.0001 0.6115,1.2007 0.2485,0.1975 0.5287,0.2994 0.844,0.2994 0.3185,0 0.602,-0.1019 0.8504,-0.3058 0.2484,-0.2006 0.4427,-0.5637 0.5797,-1.086 0.1783,-0.672 0.2707,-1.809 0.2707,-3.4142 0,-1.488 -0.0713,-2.5436 -0.2086,-3.1693 0.8315,-0.2827 1.6327,-0.5865 2.4016,-0.9119zm-43.0744 29.4908l-2.6211 0 0 -9.8827c-0.9587,0.8981 -2.0861,1.5606 -3.3856,1.9873l0 -2.3791c0.6816,-0.2229 1.4269,-0.6465 2.2295,-1.2708 0.8026,-0.6274 1.3535,-1.3567 1.6497,-2.1912l2.1275 0 0 13.7365zm8.3508 -13.7365c1.3281,0 2.3632,0.4746 3.1085,1.4205 0.8886,1.1179 1.3345,2.9747 1.3345,5.5704 0,2.5861 -0.4491,4.4461 -1.344,5.5799 -0.7389,0.9332 -1.7709,1.3982 -3.099,1.3982 -1.3281,0 -2.4014,-0.5096 -3.2167,-1.5351 -0.8153,-1.0224 -1.223,-2.8473 -1.223,-5.4717 0,-2.5766 0.4491,-4.4302 1.344,-5.5608 0.7389,-0.9332 1.7708,-1.4014 3.0957,-1.4014zm0 2.1753c-0.3153,0 -0.5987,0.1019 -0.8471,0.3026 -0.2485,0.2038 -0.4427,0.5669 -0.5797,1.0892 -0.1783,0.6784 -0.2707,1.8186 -0.2707,3.4238 0,1.6052 0.0828,2.7071 0.242,3.3059 0.1625,0.602 0.3663,1.0001 0.6115,1.2007 0.2485,0.1975 0.5287,0.2994 0.844,0.2994 0.3185,0 0.602,-0.1019 0.8504,-0.3058 0.2484,-0.2006 0.4427,-0.5637 0.5797,-1.086 0.1783,-0.672 0.2707,-1.809 0.2707,-3.4142 0,-1.6052 -0.0828,-2.7072 -0.2421,-3.3091 -0.1624,-0.5988 -0.3662,-1.0001 -0.6115,-1.2039 -0.2484,-0.2007 -0.5287,-0.3026 -0.8472,-0.3026zm12.9052 11.5612l-2.6211 0 0 -9.8827c-0.9587,0.8981 -2.0861,1.5606 -3.3856,1.9873l0 -2.3791c0.6816,-0.2229 1.4269,-0.6465 2.2295,-1.2708 0.8026,-0.6274 1.3535,-1.3567 1.6497,-2.1912l2.1275 0 0 13.7365zm9.5738 0l-2.6211 0 0 -9.8827c-0.9587,0.8981 -2.0861,1.5606 -3.3856,1.9873l0 -2.3791c0.6816,-0.2229 1.4269,-0.6465 2.2295,-1.2708 0.8026,-0.6274 1.3535,-1.3567 1.6497,-2.1912l2.1275 0 0 13.7365zm8.3508 -13.7365c1.3281,0 2.3632,0.4746 3.1085,1.4205 0.8886,1.1179 1.3345,2.9747 1.3345,5.5704 0,2.5861 -0.4491,4.4461 -1.344,5.5799 -0.7389,0.9332 -1.7709,1.3982 -3.099,1.3982 -1.3281,0 -2.4014,-0.5096 -3.2167,-1.5351 -0.8153,-1.0224 -1.223,-2.8473 -1.223,-5.4717 0,-2.5766 0.4491,-4.4302 1.344,-5.5608 0.7389,-0.9332 1.7708,-1.4014 3.0957,-1.4014zm0 2.1753c-0.3153,0 -0.5987,0.1019 -0.8471,0.3026 -0.2485,0.2038 -0.4427,0.5669 -0.5797,1.0892 -0.1783,0.6784 -0.2707,1.8186 -0.2707,3.4238 0,1.6052 0.0828,2.7071 0.242,3.3059 0.1625,0.602 0.3663,1.0001 0.6115,1.2007 0.2485,0.1975 0.5287,0.2994 0.844,0.2994 0.3185,0 0.602,-0.1019 0.8504,-0.3058 0.2484,-0.2006 0.4427,-0.5637 0.5797,-1.086 0.1783,-0.672 0.2707,-1.809 0.2707,-3.4142 0,-1.6052 -0.0828,-2.7072 -0.2421,-3.3091 -0.1624,-0.5988 -0.3662,-1.0001 -0.6115,-1.2039 -0.2484,-0.2007 -0.5287,-0.3026 -0.8472,-0.3026z"/>
   <path id="_272859016" class="fil3" d="M17.0871 23.5355l-2.6211 0 0 -9.8827c-0.9587,0.8981 -2.0861,1.5606 -3.3856,1.9873l0 -2.3791c0.6816,-0.2229 1.4269,-0.6465 2.2295,-1.2708 0.8026,-0.6274 1.3535,-1.3567 1.6497,-2.1912l2.1275 0 0 13.7365zm43.0744 7.8372c-0.7689,0.3254 -1.5701,0.6292 -2.4016,0.9119 -0.0108,-0.0493 -0.0219,-0.0958 -0.0335,-0.1398 -0.1624,-0.5988 -0.3662,-1.0001 -0.6115,-1.2039 -0.2484,-0.2007 -0.5287,-0.3026 -0.8472,-0.3026 -0.3153,0 -0.5987,0.1019 -0.8471,0.3026 -0.2485,0.2038 -0.4427,0.5669 -0.5797,1.0892 -0.0793,0.3016 -0.1419,0.6943 -0.1866,1.1787 -0.8946,0.232 -1.8162,0.4441 -2.7627,0.6369 0.1528,-1.7697 0.5802,-3.0967 1.2804,-3.9813 0.7389,-0.9332 1.7708,-1.4014 3.0957,-1.4014 1.3281,0 2.3632,0.4746 3.1085,1.4205 0.319,0.4013 0.5805,0.8975 0.7853,1.4892zm-12.2446 3.1516c-0.8584,0.1208 -1.7326,0.2284 -2.6211,0.3233l0 -2.5308c-0.9587,0.8981 -2.0861,1.5606 -3.3856,1.9873l0 -2.3791c0.6816,-0.2229 1.4269,-0.6465 2.2295,-1.2708 0.8026,-0.6274 1.3535,-1.3567 1.6497,-2.1912l2.1275 0 0 6.0613zm-9.5738 0.8044c-0.8651,0.0305 -1.739,0.0516 -2.6211,0.0632l0 -3.0751c-0.9587,0.8981 -2.0861,1.5606 -3.3856,1.9873l0 -2.3791c0.6816,-0.2229 1.4269,-0.6465 2.2295,-1.2708 0.8026,-0.6274 1.3535,-1.3567 1.6497,-2.1912l2.1275 0 0 6.8657zm-8.463 -0.0352c-0.9206,-0.0484 -1.8358,-0.1128 -2.743,-0.1928 -0.0115,-1.4148 -0.0932,-2.3992 -0.2405,-2.9559 -0.1624,-0.5988 -0.3662,-1.0001 -0.6115,-1.2039 -0.2484,-0.2007 -0.5287,-0.3026 -0.8472,-0.3026 -0.3153,0 -0.5987,0.1019 -0.8471,0.3026 -0.2485,0.2038 -0.4427,0.5669 -0.5797,1.0892 -0.15,0.5706 -0.2395,1.4677 -0.264,2.6938 -0.9199,-0.1241 -1.8269,-0.2646 -2.718,-0.4216 0.1155,-1.9996 0.554,-3.4788 1.3131,-4.4379 0.7389,-0.9332 1.7708,-1.4014 3.0957,-1.4014 1.3281,0 2.3632,0.4746 3.1085,1.4205 0.8702,1.0947 1.3156,2.8981 1.3337,5.41zm-10.6836 -1.3419c-0.9416,-0.1948 -1.8613,-0.4087 -2.7556,-0.6408 -0.0404,-0.4973 -0.0981,-0.8858 -0.1723,-1.166 -0.1624,-0.5988 -0.3662,-1.0001 -0.6115,-1.2039 -0.2484,-0.2007 -0.5287,-0.3026 -0.8472,-0.3026 -0.3153,0 -0.5987,0.1019 -0.8471,0.3026 -0.2485,0.2038 -0.4427,0.5669 -0.5797,1.0892 -0.0281,0.1068 -0.0538,0.225 -0.0776,0.3548 -0.8412,-0.2814 -1.6509,-0.5813 -2.4242,-0.8994 0.212,-0.6469 0.4895,-1.1872 0.8329,-1.6211 0.7389,-0.9332 1.7708,-1.4014 3.0957,-1.4014 1.3281,0 2.3632,0.4746 3.1085,1.4205 0.7066,0.8889 1.133,2.2448 1.2781,4.0681zm6.2414 -24.1526c1.3281,0 2.3632,0.4746 3.1085,1.4205 0.8886,1.1179 1.3345,2.9747 1.3345,5.5704 0,2.5861 -0.4491,4.4461 -1.344,5.5799 -0.7389,0.9332 -1.7709,1.3982 -3.099,1.3982 -1.3281,0 -2.4014,-0.5096 -3.2167,-1.5351 -0.8153,-1.0224 -1.223,-2.8473 -1.223,-5.4717 0,-2.5766 0.4491,-4.4302 1.344,-5.5608 0.7389,-0.9332 1.7708,-1.4014 3.0957,-1.4014zm0 2.1753c-0.3153,0 -0.5987,0.1019 -0.8471,0.3026 -0.2485,0.2038 -0.4427,0.5669 -0.5797,1.0892 -0.1783,0.6784 -0.2707,1.8186 -0.2707,3.4238 0,1.6052 0.0828,2.7071 0.242,3.3059 0.1625,0.602 0.3663,1.0001 0.6115,1.2007 0.2485,0.1975 0.5287,0.2994 0.844,0.2994 0.3185,0 0.602,-0.1019 0.8504,-0.3058 0.2484,-0.2006 0.4427,-0.5637 0.5797,-1.086 0.1783,-0.672 0.2707,-1.809 0.2707,-3.4142 0,-1.6052 -0.0828,-2.7072 -0.2421,-3.3091 -0.1624,-0.5988 -0.3662,-1.0001 -0.6115,-1.2039 -0.2484,-0.2007 -0.5287,-0.3026 -0.8472,-0.3026zm10.628 -2.1753c1.3281,0 2.3632,0.4746 3.1085,1.4205 0.8886,1.1179 1.3345,2.9747 1.3345,5.5704 0,2.5861 -0.4491,4.4461 -1.344,5.5799 -0.7389,0.9332 -1.7709,1.3982 -3.099,1.3982 -1.3281,0 -2.4014,-0.5096 -3.2167,-1.5351 -0.8153,-1.0224 -1.223,-2.8473 -1.223,-5.4717 0,-2.5766 0.4491,-4.4302 1.344,-5.5608 0.7389,-0.9332 1.7708,-1.4014 3.0957,-1.4014zm0 2.1753c-0.3153,0 -0.5987,0.1019 -0.8471,0.3026 -0.2485,0.2038 -0.4427,0.5669 -0.5797,1.0892 -0.1783,0.6784 -0.2707,1.8186 -0.2707,3.4238 0,1.6052 0.0828,2.7071 0.242,3.3059 0.1625,0.602 0.3663,1.0001 0.6115,1.2007 0.2485,0.1975 0.5287,0.2994 0.844,0.2994 0.3185,0 0.602,-0.1019 0.8504,-0.3058 0.2484,-0.2006 0.4427,-0.5637 0.5797,-1.086 0.1783,-0.672 0.2707,-1.809 0.2707,-3.4142 0,-1.6052 -0.0828,-2.7072 -0.2421,-3.3091 -0.1624,-0.5988 -0.3662,-1.0001 -0.6115,-1.2039 -0.2484,-0.2007 -0.5287,-0.3026 -0.8472,-0.3026zm12.9052 11.5612l-2.6211 0 0 -9.8827c-0.9587,0.8981 -2.0861,1.5606 -3.3856,1.9873l0 -2.3791c0.6816,-0.2229 1.4269,-0.6465 2.2295,-1.2708 0.8026,-0.6274 1.3535,-1.3567 1.6497,-2.1912l2.1275 0 0 13.7365zm9.5738 0l-2.6211 0 0 -9.8827c-0.9587,0.8981 -2.0861,1.5606 -3.3856,1.9873l0 -2.3791c0.6816,-0.2229 1.4269,-0.6465 2.2295,-1.2708 0.8026,-0.6274 1.3535,-1.3567 1.6497,-2.1912l2.1275 0 0 13.7365z"/>
   <path id="_273900632" class="fil4" d="M16.5466 23.088l-2.6211 0 0 -9.8827c-0.9587,0.8981 -2.0861,1.5606 -3.3856,1.9873l0 -2.3791c0.6816,-0.2229 1.4269,-0.6465 2.2295,-1.2708 0.8026,-0.6274 1.3535,-1.3567 1.6497,-2.1912l2.1275 0 0 13.7365zm8.3508 -13.7365c1.3281,0 2.3632,0.4746 3.1085,1.4205 0.8886,1.1179 1.3345,2.9747 1.3345,5.5704 0,2.5861 -0.4491,4.4461 -1.344,5.5799 -0.7389,0.9332 -1.7709,1.3982 -3.099,1.3982 -1.3281,0 -2.4014,-0.5096 -3.2167,-1.5351 -0.8153,-1.0224 -1.223,-2.8473 -1.223,-5.4717 0,-2.5766 0.4491,-4.4302 1.344,-5.5608 0.7389,-0.9332 1.7708,-1.4014 3.0957,-1.4014zm0 2.1753c-0.3153,0 -0.5987,0.1019 -0.8471,0.3026 -0.2485,0.2038 -0.4427,0.5669 -0.5797,1.0892 -0.1783,0.6784 -0.2707,1.8186 -0.2707,3.4238 0,1.6052 0.0828,2.7071 0.242,3.3059 0.1625,0.602 0.3663,1.0001 0.6115,1.2007 0.2485,0.1975 0.5287,0.2994 0.844,0.2994 0.3185,0 0.602,-0.1019 0.8504,-0.3058 0.2484,-0.2006 0.4427,-0.5637 0.5797,-1.086 0.1783,-0.672 0.2707,-1.809 0.2707,-3.4142 0,-1.6052 -0.0828,-2.7072 -0.2421,-3.3091 -0.1624,-0.5988 -0.3662,-1.0001 -0.6115,-1.2039 -0.2484,-0.2007 -0.5287,-0.3026 -0.8472,-0.3026zm10.628 -2.1753c1.3281,0 2.3632,0.4746 3.1085,1.4205 0.8886,1.1179 1.3345,2.9747 1.3345,5.5704 0,2.5861 -0.4491,4.4461 -1.344,5.5799 -0.7389,0.9332 -1.7709,1.3982 -3.099,1.3982 -1.3281,0 -2.4014,-0.5096 -3.2167,-1.5351 -0.8153,-1.0224 -1.223,-2.8473 -1.223,-5.4717 0,-2.5766 0.4491,-4.4302 1.344,-5.5608 0.7389,-0.9332 1.7708,-1.4014 3.0957,-1.4014zm0 2.1753c-0.3153,0 -0.5987,0.1019 -0.8471,0.3026 -0.2485,0.2038 -0.4427,0.5669 -0.5797,1.0892 -0.1783,0.6784 -0.2707,1.8186 -0.2707,3.4238 0,1.6052 0.0828,2.7071 0.242,3.3059 0.1625,0.602 0.3663,1.0001 0.6115,1.2007 0.2485,0.1975 0.5287,0.2994 0.844,0.2994 0.3185,0 0.602,-0.1019 0.8504,-0.3058 0.2484,-0.2006 0.4427,-0.5637 0.5797,-1.086 0.1783,-0.672 0.2707,-1.809 0.2707,-3.4142 0,-1.6052 -0.0828,-2.7072 -0.2421,-3.3091 -0.1624,-0.5988 -0.3662,-1.0001 -0.6115,-1.2039 -0.2484,-0.2007 -0.5287,-0.3026 -0.8472,-0.3026zm12.9052 11.5612l-2.6211 0 0 -9.8827c-0.9587,0.8981 -2.0861,1.5606 -3.3856,1.9873l0 -2.3791c0.6816,-0.2229 1.4269,-0.6465 2.2295,-1.2708 0.8026,-0.6274 1.3535,-1.3567 1.6497,-2.1912l2.1275 0 0 13.7365zm9.5738 0l-2.6211 0 0 -9.8827c-0.9587,0.8981 -2.0861,1.5606 -3.3856,1.9873l0 -2.3791c0.6816,-0.2229 1.4269,-0.6465 2.2295,-1.2708 0.8026,-0.6274 1.3535,-1.3567 1.6497,-2.1912l2.1275 0 0 13.7365zm-43.735 4.9275c1.3281,0 2.3632,0.4746 3.1085,1.4205 0.8886,1.1179 1.3345,2.9747 1.3345,5.5704 0,2.5861 -0.4491,4.4461 -1.344,5.5799 -0.7389,0.9332 -1.7709,1.3982 -3.099,1.3982 -1.3281,0 -2.4014,-0.5096 -3.2167,-1.5351 -0.8153,-1.0224 -1.223,-2.8473 -1.223,-5.4717 0,-2.5766 0.4491,-4.4302 1.344,-5.5608 0.7389,-0.9332 1.7708,-1.4014 3.0957,-1.4014zm0 2.1753c-0.3153,0 -0.5987,0.1019 -0.8471,0.3026 -0.2485,0.2038 -0.4427,0.5669 -0.5797,1.0892 -0.1783,0.6784 -0.2707,1.8186 -0.2707,3.4238 0,1.6052 0.0828,2.7071 0.242,3.3059 0.1625,0.602 0.3663,1.0001 0.6115,1.2007 0.2485,0.1975 0.5287,0.2994 0.844,0.2994 0.3185,0 0.602,-0.1019 0.8504,-0.3058 0.2484,-0.2006 0.4427,-0.5637 0.5797,-1.086 0.1783,-0.672 0.2707,-1.809 0.2707,-3.4142 0,-1.6052 -0.0828,-2.7072 -0.2421,-3.3091 -0.1624,-0.5988 -0.3662,-1.0001 -0.6115,-1.2039 -0.2484,-0.2007 -0.5287,-0.3026 -0.8472,-0.3026zm10.628 -2.1753c1.3281,0 2.3632,0.4746 3.1085,1.4205 0.8886,1.1179 1.3345,2.9747 1.3345,5.5704 0,2.5861 -0.4491,4.4461 -1.344,5.5799 -0.7389,0.9332 -1.7709,1.3982 -3.099,1.3982 -1.3281,0 -2.4014,-0.5096 -3.2167,-1.5351 -0.8153,-1.0224 -1.223,-2.8473 -1.223,-5.4717 0,-2.5766 0.4491,-4.4302 1.344,-5.5608 0.7389,-0.9332 1.7708,-1.4014 3.0957,-1.4014zm0 2.1753c-0.3153,0 -0.5987,0.1019 -0.8471,0.3026 -0.2485,0.2038 -0.4427,0.5669 -0.5797,1.0892 -0.1783,0.6784 -0.2707,1.8186 -0.2707,3.4238 0,1.6052 0.0828,2.7071 0.242,3.3059 0.1625,0.602 0.3663,1.0001 0.6115,1.2007 0.2485,0.1975 0.5287,0.2994 0.844,0.2994 0.3185,0 0.602,-0.1019 0.8504,-0.3058 0.2484,-0.2006 0.4427,-0.5637 0.5797,-1.086 0.1783,-0.672 0.2707,-1.809 0.2707,-3.4142 0,-1.6052 -0.0828,-2.7072 -0.2421,-3.3091 -0.1624,-0.5988 -0.3662,-1.0001 -0.6115,-1.2039 -0.2484,-0.2007 -0.5287,-0.3026 -0.8472,-0.3026zm12.9052 11.5612l-2.6211 0 0 -9.8827c-0.9587,0.8981 -2.0861,1.5606 -3.3856,1.9873l0 -2.3791c0.6816,-0.2229 1.4269,-0.6465 2.2295,-1.2708 0.8026,-0.6274 1.3535,-1.3567 1.6497,-2.1912l2.1275 0 0 13.7365zm9.5738 0l-2.6211 0 0 -9.8827c-0.9587,0.8981 -2.0861,1.5606 -3.3856,1.9873l0 -2.3791c0.6816,-0.2229 1.4269,-0.6465 2.2295,-1.2708 0.8026,-0.6274 1.3535,-1.3567 1.6497,-2.1912l2.1275 0 0 13.7365zm8.3508 -13.7365c1.3281,0 2.3632,0.4746 3.1085,1.4205 0.8886,1.1179 1.3345,2.9747 1.3345,5.5704 0,2.5861 -0.4491,4.4461 -1.344,5.5799 -0.7389,0.9332 -1.7709,1.3982 -3.099,1.3982 -1.3281,0 -2.4014,-0.5096 -3.2167,-1.5351 -0.8153,-1.0224 -1.223,-2.8473 -1.223,-5.4717 0,-2.5766 0.4491,-4.4302 1.344,-5.5608 0.7389,-0.9332 1.7708,-1.4014 3.0957,-1.4014zm0 2.1753c-0.3153,0 -0.5987,0.1019 -0.8471,0.3026 -0.2485,0.2038 -0.4427,0.5669 -0.5797,1.0892 -0.1783,0.6784 -0.2707,1.8186 -0.2707,3.4238 0,1.6052 0.0828,2.7071 0.242,3.3059 0.1625,0.602 0.3663,1.0001 0.6115,1.2007 0.2485,0.1975 0.5287,0.2994 0.844,0.2994 0.3185,0 0.602,-0.1019 0.8504,-0.3058 0.2484,-0.2006 0.4427,-0.5637 0.5797,-1.086 0.1783,-0.672 0.2707,-1.809 0.2707,-3.4142 0,-1.6052 -0.0828,-2.7072 -0.2421,-3.3091 -0.1624,-0.5988 -0.3662,-1.0001 -0.6115,-1.2039 -0.2484,-0.2007 -0.5287,-0.3026 -0.8472,-0.3026zm-39.1806 30.2252l-2.6211 0 0 -9.8827c-0.9587,0.8981 -2.0861,1.5606 -3.3856,1.9873l0 -2.3791c0.6816,-0.2229 1.4269,-0.6465 2.2295,-1.2708 0.8026,-0.6274 1.3535,-1.3567 1.6497,-2.1912l2.1275 0 0 13.7365zm8.3508 -13.7365c1.3281,0 2.3632,0.4746 3.1085,1.4205 0.8886,1.1179 1.3345,2.9747 1.3345,5.5704 0,2.5861 -0.4491,4.4461 -1.344,5.5799 -0.7389,0.9332 -1.7709,1.3982 -3.099,1.3982 -1.3281,0 -2.4014,-0.5096 -3.2167,-1.5351 -0.8153,-1.0224 -1.223,-2.8473 -1.223,-5.4717 0,-2.5766 0.4491,-4.4302 1.344,-5.5608 0.7389,-0.9332 1.7708,-1.4014 3.0957,-1.4014zm0 2.1753c-0.3153,0 -0.5987,0.1019 -0.8471,0.3026 -0.2485,0.2038 -0.4427,0.5669 -0.5797,1.0892 -0.1783,0.6784 -0.2707,1.8186 -0.2707,3.4238 0,1.6052 0.0828,2.7071 0.242,3.3059 0.1625,0.602 0.3663,1.0001 0.6115,1.2007 0.2485,0.1975 0.5287,0.2994 0.844,0.2994 0.3185,0 0.602,-0.1019 0.8504,-0.3058 0.2484,-0.2006 0.4427,-0.5637 0.5797,-1.086 0.1783,-0.672 0.2707,-1.809 0.2707,-3.4142 0,-1.6052 -0.0828,-2.7072 -0.2421,-3.3091 -0.1624,-0.5988 -0.3662,-1.0001 -0.6115,-1.2039 -0.2484,-0.2007 -0.5287,-0.3026 -0.8472,-0.3026zm12.9052 11.5612l-2.6211 0 0 -9.8827c-0.9587,0.8981 -2.0861,1.5606 -3.3856,1.9873l0 -2.3791c0.6816,-0.2229 1.4269,-0.6465 2.2295,-1.2708 0.8026,-0.6274 1.3535,-1.3567 1.6497,-2.1912l2.1275 0 0 13.7365zm9.5738 0l-2.6211 0 0 -9.8827c-0.9587,0.8981 -2.0861,1.5606 -3.3856,1.9873l0 -2.3791c0.6816,-0.2229 1.4269,-0.6465 2.2295,-1.2708 0.8026,-0.6274 1.3535,-1.3567 1.6497,-2.1912l2.1275 0 0 13.7365zm8.3508 -13.7365c1.3281,0 2.3632,0.4746 3.1085,1.4205 0.8886,1.1179 1.3345,2.9747 1.3345,5.5704 0,2.5861 -0.4491,4.4461 -1.344,5.5799 -0.7389,0.9332 -1.7709,1.3982 -3.099,1.3982 -1.3281,0 -2.4014,-0.5096 -3.2167,-1.5351 -0.8153,-1.0224 -1.223,-2.8473 -1.223,-5.4717 0,-2.5766 0.4491,-4.4302 1.344,-5.5608 0.7389,-0.9332 1.7708,-1.4014 3.0957,-1.4014zm0 2.1753c-0.3153,0 -0.5987,0.1019 -0.8471,0.3026 -0.2485,0.2038 -0.4427,0.5669 -0.5797,1.0892 -0.1783,0.6784 -0.2707,1.8186 -0.2707,3.4238 0,1.6052 0.0828,2.7071 0.242,3.3059 0.1625,0.602 0.3663,1.0001 0.6115,1.2007 0.2485,0.1975 0.5287,0.2994 0.844,0.2994 0.3185,0 0.602,-0.1019 0.8504,-0.3058 0.2484,-0.2006 0.4427,-0.5637 0.5797,-1.086 0.1783,-0.672 0.2707,-1.809 0.2707,-3.4142 0,-1.6052 -0.0828,-2.7072 -0.2421,-3.3091 -0.1624,-0.5988 -0.3662,-1.0001 -0.6115,-1.2039 -0.2484,-0.2007 -0.5287,-0.3026 -0.8472,-0.3026z"/>
  </g>
 </g>
</svg>
