<?xml version="1.0" encoding="UTF-8"?>
<svg xmlns="http://www.w3.org/2000/svg" xml:space="preserve" width="70mm" height="70mm" style="shape-rendering:geometricPrecision; text-rendering:geometricPrecision; image-rendering:optimizeQuality; fill-rule:evenodd; clip-rule:evenodd"
viewBox="0 0 70 70">
 <defs>
  <style type="text/css">
   <![CDATA[
    .str0 {stroke:#330608;stroke-width:1.4111}
    .fil0 {fill:#781419}
    .fil1 {fill:#9C2B31}
    .fil3 {fill:white;fill-rule:nonzero}
    .fil2 {fill:#42070A;fill-rule:nonzero}
   ]]>
  </style>
 </defs>
 <g id="Capa_x0020_1">
  <metadata id="CorelCorpID_0Corel-Layer"/>
  <g id="_271497600">
   <path id="_270341848" class="fil0 str0" d="M4.048 14.414c0,-5.7013 4.6647,-10.366 10.366,-10.366 17.1793,0 34.3587,0 51.538,0 0,20.6346 0,41.2694 0,61.904 -20.6346,0 -41.2694,0 -61.904,0l0 -51.538z"/>
   <path id="_271543072" class="fil1" d="M4.8842 28.0357l0 -13.1694c0,-5.5473 4.5387,-10.086 10.086,-10.086 16.7151,0 33.4305,0 50.1456,0 0,7.9518 0,15.9038 0,23.8556 -0.0434,0.0316 -0.0867,0.0633 -0.1306,0.0945 -6.7075,4.7796 -18.0661,6.6728 -30.9465,6.6728 -11.85,0 -23.5351,-2.6611 -29.1545,-7.3675z"/>
   <path id="_271497376" class="fil0" d="M52.14 33.7941c-1.1199,0.2331 -2.2749,0.4391 -3.4617,0.619l0 -6.7091 3.4617 0 0 6.0901zm-6.9951 1.0696c-1.0521,0.1104 -2.1244,0.203 -3.2141,0.2786l0 -3.9287 -1.0076 3.9936c-0.9924,0.0589 -1.9985,0.104 -3.017,0.136l2.0442 -7.7789 5.1945 0 0 7.2994zm-9.2984 0.5267c-0.5991,0.0085 -1.2017,0.0128 -1.8078,0.0128 -0.397,0 -0.7939,-0.0032 -1.1904,-0.0092l-1.0509 -4.1804 0 4.1578c-1.0773,-0.0305 -2.1502,-0.083 -3.2141,-0.1567l0 -7.6504 5.1825 0 2.0807 7.8261zm-13.934 -0.939c-2.4701,-0.4009 -4.8282,-0.9246 -7.0074,-1.5646l-3.4464 -5.3225 4.0446 0 3.4416 5.5099 3.3659 -5.5099 4.0126 0 -4.4109 6.8871z"/>
   <path id="_271497840" class="fil2" d="M10.9077 44.7128l5.8612 -8.9476 -1.8634 -2.8778c2.179,0.6399 4.5368,1.1637 7.0067,1.5645l-0.923 1.4411 5.8612 8.8198 -4.1763 0 -3.801 -5.9291 -3.813 5.9291 -4.1524 0zm17.6756 0l0 -9.4977c1.0639,0.0737 2.1367,0.126 3.2141,0.1565l0 9.3412 -3.2141 0zm7.2633 -9.3221l1.0295 3.8721 1.0299 -3.9192c1.0184,-0.032 2.0246,-0.0771 3.0171,-0.1359l-2.3981 9.5051 -3.3339 0 -2.3427 -9.3186c0.3964,0.0059 0.7933,0.009 1.1903,0.009 0.6062,0 1.2088,-0.004 1.8079,-0.0125zm9.2983 -0.5266l0 9.8487 -3.2141 0 0 -9.5699c1.0898,-0.0756 2.162,-0.1683 3.2141,-0.2788zm3.5334 9.8487l0 -10.2991c1.1868,-0.1799 2.3418,-0.3862 3.4617,-0.6193l0 8.0277 8.6082 0 0 2.8907 -12.0699 0z"/>
   <path id="_271497232" class="fil3" d="M10.0797 43.5743l5.8612 -8.9476 -5.3102 -8.2009 4.0446 0 3.4416 5.5099 3.3659 -5.5099 4.0126 0 -5.3342 8.3287 5.8612 8.8198 -4.1763 0 -3.801 -5.9291 -3.813 5.9291 -4.1524 0zm17.6756 0l0 -17.1485 5.1825 0 3.1103 11.6985 3.0743 -11.6985 5.1945 0 0 17.1485 -3.2141 0 0 -13.4992 -3.4058 13.4992 -3.3339 0 -3.3937 -13.4992 0 13.4992 -3.2141 0zm20.095 0l0 -17.0088 3.4617 0 0 14.1181 8.6082 0 0 2.8907 -12.0699 0z"/>
  </g>
 </g>
</svg>
