<?xml version="1.0" encoding="UTF-8"?>
<svg xmlns="http://www.w3.org/2000/svg" xml:space="preserve" width="70mm" height="70mm" style="shape-rendering:geometricPrecision; text-rendering:geometricPrecision; image-rendering:optimizeQuality; fill-rule:evenodd; clip-rule:evenodd"
viewBox="0 0 70 70">
 <defs>
  <style type="text/css">
   <![CDATA[
    .str0 {stroke:#AB6128;stroke-width:1.4111}
    .fil4 {fill:white}
    .fil0 {fill:#CD7632}
    .fil1 {fill:#E38842}
    .fil3 {fill:white;fill-rule:nonzero}
    .fil2 {fill:#B35F1E;fill-rule:nonzero}
   ]]>
  </style>
 </defs>
 <g id="Capa_x0020_1">
  <g id="_182396064">
   <path id="_182608888" class="fil0 str0" d="M4.048 14.414c0,-5.7013 4.6647,-10.366 10.366,-10.366 17.1793,0 34.3587,0 51.538,0 0,20.6346 0,41.2694 0,61.904 -20.6346,0 -41.2694,0 -61.904,0l0 -51.538z"/>
   <path id="_129029856" class="fil1" d="M4.8842 28.0357l0 -13.1694c0,-5.5473 4.5387,-10.086 10.086,-10.086 16.7151,0 33.4305,0 50.1456,0 0,7.9518 0,15.9038 0,23.8556 -0.0434,0.0316 -0.0867,0.0633 -0.1306,0.0945 -6.7075,4.7796 -18.0661,6.6728 -30.9465,6.6728 -11.85,0 -23.5351,-2.6611 -29.1545,-7.3675z"/>
   <path id="_182376200" class="fil2" d="M24.7037 56.7934c0.8428,-1.6809 1.7499,-3.236 2.5775,-4.9317 -4.1561,1.6835 -8.3148,3.1128 -12.4682,3.8495 -0.145,0.0261 -0.2545,-0.0034 -0.3259,-0.0755l-0.0008 -0.0016c-0.2538,-0.2604 -0.28,-0.6335 -0.0944,-1.1099l0.003 -0.007c0.0467,-0.1154 0.1258,-0.2465 0.2322,-0.3784 0.3274,-0.4088 1.0502,-1.0318 2.0491,-1.6687l0.0108 -0.0069c1.7645,-1.1239 3.7604,-2.0601 5.8939,-2.9055 -5.7805,0.3559 -7.2236,0.6316 -13.0069,0.6638 -0.2321,0.0016 -1.0725,-0.0878 -1.528,-0.2257l-0.0008 -0.0017c-0.1396,-0.0434 -0.2541,-0.0929 -0.3232,-0.1562 -0.4732,-0.4313 -0.5218,-0.8548 0.0286,-1.2774l0.0031 -0.0035c0.1033,-0.0763 0.329,-0.1554 0.7177,-0.2265 8.5547,-1.5872 12.7762,-3.0084 21.343,-4.5738l0.1843 -0.8626c-0.3635,-2.7023 -0.6063,-5.2503 -0.7506,-7.636 0.1985,0.012 0.3972,0.0232 0.5962,0.0338 0.071,1.9683 0.2265,3.9577 0.4892,5.917 0.3552,-1.8775 0.6728,-3.85 0.9543,-5.8532 0.1886,0.0066 0.3774,0.0122 0.5662,0.0174 -0.3628,2.6268 -0.7867,5.209 -1.2736,7.6077l0.0913 0.6188 2.2107 -0.4027 1.7178 -0.3141c0.0971,-2.3071 -0.1866,-4.9557 0.0336,-7.481l0.6788 -0.0049c-0.1332,2.2592 -0.1407,4.9984 -0.1647,7.3853l0.6664 -0.1215 0.0641 -0.8036c0.1763,-2.3327 0.2849,-4.5719 0.3344,-6.4725 0.1818,-0.0031 0.3633,-0.0066 0.5444,-0.0105 -0.0499,1.9676 -0.1612,4.282 -0.3427,6.686l-0.0394 0.4981 2.1216 -0.3878c0.3152,-1.5223 0.7207,-4.3577 1.1243,-6.8938l0.3633 -0.0173c-0.3706,2.2317 -0.6455,4.612 -0.9156,6.806l0.6457 -0.1179c0.3746,-2.0853 0.6702,-4.3682 0.8347,-6.7179 0.1844,-0.0101 0.3682,-0.021 0.5516,-0.0322 -0.1553,2.3075 -0.4334,4.5589 -0.7885,6.6407l2.1308 -0.3897c0.1605,-0.0295 0.5518,-0.1394 0.9777,-0.2616 -0.185,-1.3576 -0.4318,-2.5656 -0.768,-3.6116l1.1149 -2.5776c4.087,-0.3639 7.8962,-0.9831 11.3011,-1.8978l-1.7364 6.7829 -0.4003 1.3262c-1.8491,0.7898 -5.5635,4.4632 -9.7315,9.5531 0.1613,-1.4959 0.3008,-1.8724 0.4071,-2.9796 -0.0355,-0.9854 0.2187,-1.9757 0.1628,-2.875l-4.493 1.7686c-0.115,0.4356 -0.2322,0.8538 -0.3518,1.2531 0.2393,-0.033 4.4674,-0.2801 4.7328,0.1513 -0.1452,0.4101 -4.5278,0.7539 -5.1188,1.061l-0.027 0.4217c0.0105,0.6726 0.0559,0.8513 0.1647,1.1116 0.1318,0.3142 0.0992,0.7082 0.7267,-0.6238 0.8586,-1.5858 0.953,-0.2767 0.8279,-0.0261l-0.0015 0.0034 -0.0814 0.1745 -0.0008 0.0017c-0.9094,1.9299 -1.5046,2.1703 -1.8659,1.3103 -0.1049,-0.2499 -0.1786,-0.6204 -0.2244,-1.0898l-0.1035 0.2481c-0.5391,1.2462 -1.0868,2.0567 -1.5808,2.2866 -0.449,0.2083 -0.8512,-0.0251 -1.1674,-0.7837 -1.377,8.8723 -3.1071,3.5025 -3.9444,-1.9932 -1.0154,0.44 -2.031,0.8747 -3.0461,1.2947 -1.1991,2.7743 -3.7515,5.9817 -3.512,5.3161zm18.9276 -13.7278c0.0179,0.1967 0.0348,0.3958 0.051,0.5975 -1.4778,0.567 -2.9977,1.1698 -4.0605,1.6217l0.1446 -0.643 3.8649 -1.5762zm-15.6983 7.2863l0.1674 -0.4391c0.0787,-0.2153 0.155,-0.4374 0.2318,-0.664l-1.7128 0.0808c-3.6034,1.2261 -6.9958,2.5347 -9.7828,4.3102l-0.0107 0.007c-0.3348,0.2135 -0.6364,0.4235 -0.8986,0.6213 3.9982,-0.8287 8.0035,-2.2666 12.0057,-3.9162zm0.9947 -3.0313c0.2036,-0.715 0.3995,-1.4664 0.5869,-2.2493l0.0078 -0.0329c-7.6464,0.867 -12.6096,2.1138 -19.7817,3.93 6.4153,-0.1338 10.4097,-0.5335 16.8231,-0.8589 0.7799,-0.2656 1.5694,-0.5285 2.3639,-0.7889zm1.0668 -1.6661c-0.1172,0.4895 -0.2387,0.9693 -0.363,1.4362l0.1883 -0.0607 0.7829 -0.2569c-0.1046,-0.6066 -0.2063,-1.2332 -0.3066,-1.8753l-0.132 0.0243c-0.0554,0.2464 -0.1117,0.4912 -0.1696,0.7324zm-0.9778 3.5658c-0.0848,0.2689 -0.1715,0.5302 -0.2583,0.7879 0.6661,-0.2786 1.3317,-0.5615 1.9966,-0.8496l-1.7383 0.0617zm1.8386 -4.4248c0.0976,0.6169 0.1979,1.2157 0.2992,1.7962 1.1255,-0.3714 2.254,-0.7498 3.376,-1.1463 0.0046,-0.4217 0.0134,-0.8634 0.0262,-1.326l-1.6287 0.2977 -2.0727 0.3784zm0.5118 2.9652l0.0297 0.1552c0.7698,-0.0208 1.5377,-0.0355 2.3033,-0.0451l0.8466 -0.374c-0.0074,-0.2595 -0.0121,-0.5285 -0.0155,-0.8087 -1.0522,0.3696 -2.1093,0.7245 -3.1641,1.0726zm0.4493 2.1806c0.6996,5.6598 1.8617,9.4563 3.043,1.0015 -0.0972,-0.5086 -0.1762,-1.1256 -0.2314,-1.8571l-0.8809 0.007 -1.9307 0.8486zm3.5779 -2.8193l0.0857 -0.7723 -0.4127 0.1474c0.0015,0.2656 0.0046,0.5207 0.0108,0.7654l0.3162 -0.1405zm0.2121 -2.0602c0.0355,-0.3714 0.0702,-0.7567 0.1046,-1.1533l-0.6105 0.1119c-0.0135,0.4314 -0.0224,0.8418 -0.0281,1.2349l0.534 -0.1935zm0.6666 -1.2565l-0.0926 1.0448c0.7115,-0.2647 1.4181,-0.5407 2.1166,-0.8279l0.0613 -0.5979 -2.0853 0.381zm-0.2168 2.3325l-0.0752 0.7247 2.1505 -0.939 0.0486 -0.6074c-0.7008,0.2854 -1.4108,0.5571 -2.1239,0.8217zm-0.3422 2.9479c-0.0867,0.6465 -0.1747,1.2366 -0.2645,1.7755l0.0077 0.0278c0.2036,0.7636 0.4856,1.0231 0.806,0.8747 0.385,-0.1788 0.837,-0.8695 1.3025,-1.9447 0.0945,-0.2179 0.189,-0.4513 0.2827,-0.6986 -0.7096,-0.019 -1.4208,-0.0312 -2.1344,-0.0347zm3.2232 -3.5101l0.1569 -0.6413 -0.3582 0.1518 -0.0548 0.6006 0.2561 -0.1111zm0.4644 -2.022l0.0689 -0.3324 -0.5503 0.0999 -0.0505 0.4625 0.5319 -0.23zm0.681 -0.4443l-0.0301 0.1545 0.5401 -0.2482 -0.51 0.0937zm-2.0633 4.7919c0.0076,-0.2257 0.0185,-0.4599 0.0308,-0.6977l-1.5268 0.6673c0.4998,0.007 0.9984,0.0165 1.496,0.0304z"/>
   <path id="_184012128" class="fil0" d="M52.7506 4.7803l12.3652 0 0 4.1392 -6.3768 16.4311 1.6725 0.5694 -0.7943 2.3408 -14.3232 -4.8928 0.7973 -2.3233 6.9657 2.3715 -5.2898 -1.81 4.9834 -16.8259zm2.3183 28.319c-3.4049,0.9146 -7.2142,1.5339 -11.3012,1.8978l4.5734 -10.5735 8.2322 2.799 -1.5044 5.8767zm-13.9682 2.0976c-0.1833,0.0112 -0.3672,0.0218 -0.5516,0.032 0.0794,-1.1333 0.1286,-2.2816 0.141,-3.4311 -0.2733,1.0734 -0.5039,2.245 -0.7058,3.461 -0.1209,0.0061 -0.2421,0.0116 -0.3633,0.0173 0.4605,-2.8939 0.9185,-5.3975 1.2357,-5.115l0.0004 0.0009 0.0011 -0.0009c0.2472,0.0113 0.3865,0.4878 0.3776,1.5334 -0.0099,1.172 -0.0571,2.3441 -0.1351,3.5024zm-4.3435 0.1768c-0.1811,0.0039 -0.3626,0.0075 -0.5444,0.0107 0.0467,-1.7952 0.0407,-3.2879 -0.0116,-4.2713l-0.0112 -0.1796c-0.4989,0.5189 -0.7478,2.2632 -0.8774,4.4632l-0.6788 0.0051c0.1692,-1.9402 0.5084,-4.3038 0.8545,-5.8817 0.3899,-0.8598 0.7476,-0.6841 0.9926,-0.2111 0.1295,0.2517 0.2178,0.8322 0.2618,1.6583 0.0543,1.0217 0.0613,2.5613 0.0145,4.4064zm-4.9033 -0.0008c-0.1888,-0.0052 -0.3775,-0.011 -0.5661,-0.0176 1.0544,-7.502 1.5964,-15.434 1.6505,-20.416 0.069,-6.227 -3.5927,6.5347 -3.094,20.3523 -0.1989,-0.0106 -0.3978,-0.0219 -0.5962,-0.0339 -1.1894,-19.6625 4.9382,-28.7178 4.8516,-20.7639 -0.0544,4.9878 -1.2066,13.3536 -2.2458,20.8791zm4.2748 -5.1189l-0.0035 -0.0165c-0.0347,-0.0677 -0.025,-0.0425 0.0035,0.0165z"/>
   <path id="_184422384" class="fil3" d="M24.0633 56.0595c0.8428,-1.6809 1.7499,-3.236 2.5775,-4.9317 -4.1561,1.6835 -8.3148,3.1128 -12.4682,3.8495 -0.145,0.0261 -0.2545,-0.0034 -0.3259,-0.0755l-0.0008 -0.0016c-0.2538,-0.2604 -0.28,-0.6335 -0.0944,-1.1099l0.003 -0.007c0.0467,-0.1154 0.1258,-0.2465 0.2322,-0.3784 0.3274,-0.4088 1.0502,-1.0318 2.0491,-1.6687l0.0108 -0.0069c1.7645,-1.1239 3.7604,-2.0601 5.8939,-2.9055 -5.7805,0.3559 -7.2236,0.6316 -13.0069,0.6638 -0.2321,0.0016 -1.0725,-0.0878 -1.528,-0.2257l-0.0008 -0.0017c-0.1396,-0.0434 -0.2541,-0.0929 -0.3232,-0.1562 -0.4732,-0.4313 -0.5218,-0.8548 0.0286,-1.2774l0.0031 -0.0035c0.1033,-0.0763 0.329,-0.1554 0.7177,-0.2265 8.5547,-1.5872 12.7762,-3.0084 21.343,-4.5738l0.1843 -0.8626c-5.2245,-26.2169 3.8195,-37.5312 4.0884,-28.3683 -0.0734,6.7288 -1.6251,19.1845 -3.5067,28.455l0.0913 0.6188 2.2107 -0.4027 1.7178 -0.3141c-0.2268,-5.1803 0.0497,-10.1479 1.1764,-12.8674 0.2471,-0.7127 0.3401,-0.931 0.7043,-0.7064 0.1295,0.2517 0.2178,0.8322 0.2618,1.6583 0.1122,2.1113 0.0235,6.4346 -0.3282,11.0928l-0.0394 0.4981 2.1216 -0.3878c0.5391,-3.368 1.5884,-12.6804 2.36,-12.0093l0.0004 0.0009 0.0011 -0.0009c0.2472,0.0113 0.3865,0.4878 0.3776,1.5334 -0.0297,3.5067 -0.3903,7.0168 -0.9236,10.1435l2.1308 -0.3897c0.3772,-0.0693 2.0308,-0.5846 2.4084,-0.6531l0.5326 -0.0981c0.2757,-0.1674 0.5482,-0.3384 0.8173,-0.5139l-0.5028 2.0393 -5.9321 2.4193 -0.1446 0.643c1.5169,-0.645 3.9651,-1.5976 5.8922,-2.3142l-0.3414 1.3848 -5.8952 2.3205c-0.115,0.4356 -0.2322,0.8538 -0.3518,1.2531 0.7978,0.1572 5.4429,0.5679 5.3732,0.8852 -0.5596,0.0911 -5.0027,0.2165 -5.7592,0.3271l-0.027 0.4217c0.0105,0.6726 0.0559,0.8513 0.1647,1.1116 0.1318,0.3142 0.0992,0.7082 0.7267,-0.6238 0.8586,-1.5858 0.953,-0.2767 0.8279,-0.0261l-0.0015 0.0034 -0.0814 0.1745 -0.0008 0.0017c-0.9094,1.9299 -1.5046,2.1703 -1.8659,1.3103 -0.1049,-0.2499 -0.1786,-0.6204 -0.2244,-1.0898l-0.1035 0.2481c-0.5391,1.2462 -1.0868,2.0567 -1.5808,2.2866 -0.449,0.2083 -0.8512,-0.0251 -1.1674,-0.7837 -1.377,8.8723 -3.1071,3.5025 -3.9444,-1.9932 -1.0154,0.44 -2.031,0.8747 -3.0461,1.2947 -1.1991,2.7743 -3.7515,5.9817 -3.512,5.3161zm3.2293 -6.4415l0.1674 -0.4391c0.0787,-0.2153 0.155,-0.4374 0.2318,-0.664l-1.7128 0.0808c-3.6034,1.2261 -6.9958,2.5347 -9.7828,4.3102l-0.0107 0.007c-0.3348,0.2135 -0.6364,0.4235 -0.8986,0.6213 3.9982,-0.8287 8.0035,-2.2666 12.0057,-3.9162zm0.9947 -3.0313c0.2036,-0.715 0.3995,-1.4664 0.5869,-2.2493l0.0078 -0.0329c-6.6034,0.8459 -10.6683,1.8901 -19.4906,4.1632 6.4153,-0.1338 10.1186,-0.7667 16.532,-1.0921 0.7799,-0.2656 1.5694,-0.5285 2.3639,-0.7889zm1.0668 -1.6661c-0.1172,0.4895 -0.2387,0.9693 -0.363,1.4362l0.1883 -0.0607 0.7829 -0.2569c-0.1046,-0.6066 -0.2063,-1.2332 -0.3066,-1.8753l-0.132 0.0243c-0.0554,0.2464 -0.1117,0.4912 -0.1696,0.7324zm-0.9778 3.5658c-0.0848,0.2689 -0.1715,0.5302 -0.2583,0.7879 0.6661,-0.2786 1.3317,-0.5615 1.9966,-0.8496l-1.7383 0.0617zm1.3168 -8.0114c1.6853,-8.9088 2.5362,-19.9573 2.6048,-26.2696 0.0788,-7.114 -4.7114,10.5557 -2.6048,26.2696zm0.5218 3.5866c0.0976,0.6169 0.1979,1.2157 0.2992,1.7962 1.1255,-0.3714 2.254,-0.7498 3.376,-1.1463 0.0046,-0.4217 0.0134,-0.8634 0.0262,-1.326l-1.6287 0.2977 -2.0727 0.3784zm0.5118 2.9652l0.0297 0.1552c0.7698,-0.0208 1.5377,-0.0355 2.3033,-0.0451l0.8466 -0.374c-0.0074,-0.2595 -0.0121,-0.5285 -0.0155,-0.8087 -1.0522,0.3696 -2.1093,0.7245 -3.1641,1.0726zm0.4493 2.1806c0.6996,5.6598 1.8617,9.4563 3.043,1.0015 -0.0972,-0.5086 -0.1762,-1.1256 -0.2314,-1.8571l-0.8809 0.007 -1.9307 0.8486zm3.5779 -2.8193l0.0857 -0.7723 -0.4127 0.1474c0.0015,0.2656 0.0046,0.5207 0.0108,0.7654l0.3162 -0.1405zm0.2121 -2.0602c0.0355,-0.3714 0.0702,-0.7567 0.1046,-1.1533l-0.6105 0.1119c-0.0135,0.4314 -0.0224,0.8418 -0.0281,1.2349l0.534 -0.1935zm0.2079 -2.4011l0.0641 -0.8036c0.3428,-4.5359 0.4304,-8.7195 0.3228,-10.744l-0.0112 -0.1796c-0.8177,1.0448 -0.916,7.1347 -1.0421,11.8487l0.6664 -0.1215zm0.4587 1.1446l-0.0926 1.0448c0.7115,-0.2647 1.4181,-0.5407 2.1166,-0.8279l0.0613 -0.5979 -2.0853 0.381zm-0.2168 2.3325l-0.0752 0.7247 2.1505 -0.939 0.0486 -0.6074c-0.7008,0.2854 -1.4108,0.5571 -2.1239,0.8217zm-0.3422 2.9479c-0.0867,0.6465 -0.1747,1.2366 -0.2645,1.7755l0.0077 0.0278c0.2036,0.7636 0.4856,1.0231 0.806,0.8747 0.385,-0.1788 0.837,-0.8695 1.3025,-1.9447 0.0945,-0.2179 0.189,-0.4513 0.2827,-0.6986 -0.7096,-0.019 -1.4208,-0.0312 -2.1344,-0.0347zm0.4147 -18.8317l-0.0035 -0.0165c-0.0347,-0.0677 -0.025,-0.0425 0.0035,0.0165zm2.8085 15.3216l0.1569 -0.6413 -0.3582 0.1518 -0.0548 0.6006 0.2561 -0.1111zm0.4644 -2.022l0.0689 -0.3324 -0.5503 0.0999 -0.0505 0.4625 0.5319 -0.23zm0.3128 -1.6062c0.5553,-3.0911 0.9375,-6.6169 0.9757,-10.1496 -0.7748,3.0433 -1.2041,6.878 -1.6214,10.2675l0.6457 -0.1179zm0.3682 1.1619l-0.0301 0.1545 0.5401 -0.2482 -0.51 0.0937zm-2.0633 4.7919c0.0076,-0.2257 0.0185,-0.4599 0.0308,-0.6977l-1.5268 0.6673c0.4998,0.007 0.9984,0.0165 1.496,0.0304z"/>
   <path id="_185102320" class="fil4" d="M58.9768 27.5269l-3.2821 -1.2279 -3.3195 14.0866c-2.7719,2.0028 -5.0583,3.8215 -7.8254,7.7886l3.6672 -11.1197c0.3713,-0.0165 0.6586,-0.2812 0.787,-0.6516 0.1841,-0.5269 -0.097,-1.0769 -0.6231,-1.2602 -0.5258,-0.1852 -1.0748,0.0961 -1.2597,0.6223 -0.1287,0.371 -0.0686,0.7324 0.2124,0.9923l-3.726 11.025c-0.1333,-5.1974 -0.4933,-8.4183 -1.5953,-10.9411l5.6884 -13.1515 -0.0032 -0.0158 -3.0439 -1.0398 0.7973 -2.3233 2.0981 0.7563 4.347 -16.3149 13.3522 0.0016 0 1.7553 -7.1496 18.1076 1.6725 0.5694 -0.7943 2.3408z"/>
  </g>
 </g>
</svg>
