<?xml version="1.0" encoding="UTF-8"?>
<svg xmlns="http://www.w3.org/2000/svg" xml:space="preserve" width="70mm" height="70mm" style="shape-rendering:geometricPrecision; text-rendering:geometricPrecision; image-rendering:optimizeQuality; fill-rule:evenodd; clip-rule:evenodd"
viewBox="0 0 70 70">
 <defs>
  <style type="text/css">
   <![CDATA[
    .str1 {stroke:white;stroke-width:0.3528;stroke-linejoin:round}
    .str0 {stroke:red;stroke-width:1.4111}
    .fil2 {fill:white}
    .fil0 {fill:#FF0017}
    .fil1 {fill:#FF4050}
   ]]>
  </style>
 </defs>
 <g id="Capa_x0020_1">
  <g id="_272706312">
   <path id="_269900440" class="fil0 str0" d="M4.048 14.414c0,-5.7013 4.6647,-10.366 10.366,-10.366 17.1793,0 34.3587,0 51.538,0 0,20.6346 0,41.2694 0,61.904 -20.6346,0 -41.2694,0 -61.904,0l0 -51.538z"/>
   <path id="_272706776" class="fil1" d="M4.8842 28.0357l0 -13.1694c0,-5.5473 4.5387,-10.086 10.086,-10.086 16.7151,0 33.4305,0 50.1456,0 0,7.9518 0,15.9038 0,23.8556 -0.0434,0.0316 -0.0867,0.0633 -0.1306,0.0945 -6.7075,4.7796 -18.0661,6.6728 -30.9465,6.6728 -11.85,0 -23.5351,-2.6611 -29.1545,-7.3675z"/>
   <path id="_272706616" class="fil2 str1" d="M18.0553 50.1486c-5.2267,3.8327 -8.9942,9.2276 -8.5948,10.9537 3.7344,-0.0982 9.071,-7.3855 16.1064,-21.5737 1.6513,-4.9479 4.2744,-9.4974 5.7408,-14.5723 -1.8185,-6.0316 -2.2442,-12.0203 -1.3373,-15.3447 0.259,-1.0364 0.7772,-1.4248 1.4246,-1.4248l1.0361 0c0.5178,-0.0001 2.2019,-0.1295 1.5544,3.3672 -0.2595,-1.9428 -1.1657,-2.8492 -1.8135,-3.2379 -0.2589,0.1302 -0.6475,0.7776 -0.9066,1.2952 -0.7614,2.3689 -0.4727,7.115 0.8662,12.2153 1.0413,-4.3852 1.299,-7.4518 1.7238,-9.2364 -0.0889,4.0051 -0.0559,7.7048 -0.8671,12.1072 1.7512,5.226 4.2152,9.8687 8.2494,13.5356 1.5347,1.222 3.2314,2.3382 4.9755,3.3209 9.8487,-1.1659 17.0585,0.0497 15.3578,3.6732 0.1832,-2.1979 -5.4478,-2.8701 -12.9162,-2.397 5.4548,2.6399 10.8521,3.8821 12.7867,2.9147 -0.51,2.5489 -8.8051,1.2448 -16.0398,-2.6476 -7.3231,0.7297 -15.7408,2.3955 -22.1007,4.6966 -6.7816,11.7093 -11.0014,15.0728 -13.5345,13.7511l-0.0011 -0.0005 0.0013 0.0009 -0.5099 -0.2319 -0.9146 -0.4155 0.0065 0.0023 -0.0066 -0.0029c-0.777,-1.036 1.036,-6.216 9.7132,-10.7487zm5.3088 -2.4637c1.1744,-2.032 2.425,-4.3117 3.7571,-6.8617 1.8386,-4.295 3.9755,-8.423 5.1659,-12.9807 1.586,4.1858 4.1672,8.6997 7.6553,11.5567 1.0635,0.9194 2.235,1.7682 3.4654,2.5401 -6.3879,0.9988 -13.569,2.9164 -20.0437,5.7456z"/>
  </g>
 </g>
</svg>
