<?xml version="1.0" encoding="UTF-8"?>
<svg xmlns="http://www.w3.org/2000/svg" xml:space="preserve" width="70mm" height="70mm" style="shape-rendering:geometricPrecision; text-rendering:geometricPrecision; image-rendering:optimizeQuality; fill-rule:evenodd; clip-rule:evenodd"
viewBox="0 0 70 70">
 <defs>
  <style type="text/css">
   <![CDATA[
    .str0 {stroke:#00A0A0;stroke-width:1.4111}
    .fil0 {fill:#3DAEB0}
    .fil1 {fill:#8CC7CD}
    .fil3 {fill:white;fill-rule:nonzero}
    .fil2 {fill:#008F8F;fill-rule:nonzero}
   ]]>
  </style>
 </defs>
 <g id="Capa_x0020_1">
  <metadata id="CorelCorpID_0Corel-Layer"/>
  <path class="fil0 str0" d="M1.548 11.914c0,-5.7013 4.6647,-10.366 10.366,-10.366 17.1793,0 34.3587,0 51.538,0 0,20.6346 0,41.2694 0,61.904 -20.6346,0 -41.2694,0 -61.904,0l0 -51.538z"/>
  <path class="fil1" d="M2.3842 25.5357l0 -13.1694c0,-5.5473 4.5387,-10.086 10.086,-10.086 16.7151,0 33.4305,0 50.1456,0 0,7.9518 0,15.9038 0,23.8556 -0.0434,0.0316 -0.0867,0.0633 -0.1306,0.0945 -6.7075,4.7796 -18.0661,6.6728 -30.9465,6.6728 -11.85,0 -23.5351,-2.6611 -29.1545,-7.3675z"/>
  <path class="fil2" d="M24.1549 32.5566l0 15.6666 -4.2789 0 0 -16.1984c1.3962,0.2166 2.8263,0.3944 4.2789,0.5318zm1.6754 13.6478l20.6593 0 0 2.0188 -20.6593 0 0 -2.0188zm0 -5.7792l20.6593 0 0 2.0188 -20.6593 0 0 -2.0188zm0 -5.7792l20.6593 0 0 2.0188 -20.6593 0 0 -2.0188z"/>
  <path class="fil2" d="M10.9625 50.4307c-0.142,-0.0265 -0.2961,-0.0482 -0.4669,-0.0626 -0.1685,-0.0144 -0.3129,-0.0217 -0.4357,-0.0217 -0.2454,0 -0.4644,0.0313 -0.6594,0.0915 -0.1949,0.0626 -0.3586,0.1588 -0.491,0.2936 -0.1323,0.1324 -0.2334,0.3105 -0.3032,0.5271 -0.0698,0.219 -0.1059,0.4837 -0.1059,0.7942 0,2.5759 0,5.152 0,7.7279l-1.0926 0c0,-4.5447 0,-5.7366 0,-7.7207 0,-0.4837 0.0649,-0.8929 0.1949,-1.2226 0.1276,-0.3321 0.3057,-0.6041 0.5319,-0.8183 0.2262,-0.2142 0.491,-0.3706 0.7966,-0.4717 0.3057,-0.1011 0.6354,-0.1516 0.9868,-0.1516 0.2262,0 0.4332,0.0096 0.6233,0.0337 0.1901,0.024 0.3321,0.0505 0.4212,0.077l0 0.9242zm-2.11 2.6522l1.6431 0 0 0.9362 -1.6431 0 0 -0.9362zm6.7333 5.9565l-0.0265 0c-0.0891,0.1132 -0.2022,0.2263 -0.3394,0.337 -0.1371,0.1083 -0.2936,0.207 -0.4717,0.296 -0.1781,0.0866 -0.3754,0.1564 -0.5848,0.207 -0.2118,0.0529 -0.438,0.077 -0.6787,0.077 -0.3225,0 -0.6209,-0.0481 -0.8905,-0.1444 -0.2719,-0.0963 -0.503,-0.2359 -0.6979,-0.4236 -0.195,-0.1853 -0.3466,-0.4115 -0.4549,-0.6787 -0.1083,-0.2695 -0.1636,-0.5728 -0.1636,-0.9097 0,-0.3345 0.0601,-0.633 0.1805,-0.8953 0.1203,-0.2647 0.2888,-0.4862 0.5054,-0.6715 0.2142,-0.1829 0.4741,-0.3225 0.7773,-0.4211 0.3033,-0.0987 0.6378,-0.1493 1.006,-0.1493 0.3466,0.0048 0.6691,0.0361 0.9651,0.0915 0.1546,0.0302 0.3004,0.0635 0.4373,0.1006l0 0.8913c-0.106,-0.0232 -0.2188,-0.0459 -0.3386,-0.0677 -0.2768,-0.053 -0.5824,-0.0795 -0.917,-0.0843 -0.4644,0 -0.8279,0.0987 -1.0926,0.2961 -0.2623,0.1973 -0.3947,0.5005 -0.3947,0.9097 0,0.207 0.0337,0.3875 0.0987,0.5415 0.065,0.1564 0.1564,0.284 0.2719,0.3851 0.1156,0.101 0.2503,0.1757 0.4092,0.2262 0.1564,0.0481 0.3249,0.0746 0.503,0.0746 0.2358,0 0.4548,-0.0361 0.657,-0.1035 0.2022,-0.0674 0.3803,-0.1492 0.5391,-0.2431 0.1564,-0.0938 0.2912,-0.1877 0.4019,-0.2815 0.1107,-0.0939 0.1902,-0.1685 0.2431,-0.2191 0,-0.9244 0,-1.7921 0,-2.6786 0,-0.1829 -0.012,-0.3466 -0.0361,-0.4862 -0.0217,-0.142 -0.0626,-0.2671 -0.1203,-0.3754 -0.1204,-0.2262 -0.3153,-0.4116 -0.5849,-0.5608 -0.2671,-0.1468 -0.6281,-0.2214 -1.0854,-0.2214 -0.3369,0 -0.657,0.0313 -0.9554,0.0963 -0.2985,0.0626 -0.5945,0.1516 -0.8905,0.2623l0 -0.9145c0.1107,-0.0578 0.2455,-0.1107 0.3971,-0.1589 0.154,-0.0505 0.3129,-0.0914 0.4837,-0.1275 0.1685,-0.0361 0.3466,-0.0626 0.5343,-0.0819 0.1901,-0.0192 0.3779,-0.0264 0.5656,-0.0264 0.6763,0 1.2298,0.1179 1.6606,0.3586 0.4284,0.2406 0.7389,0.5559 0.9266,0.9506 0.0698,0.1516 0.1203,0.3177 0.1516,0.4982 0.0313,0.1805 0.0457,0.3803 0.0457,0.5969l0 4.4692 -0.9169 0 -0.1203 -0.7413zm6.0288 -6.1322c0.3249,0 0.6329,0.0337 0.9289,0.101 0.2985,0.0674 0.5512,0.1637 0.763,0.2864l0 0.9098c-0.2961,-0.1131 -0.568,-0.1974 -0.8183,-0.2551 -0.2479,-0.0554 -0.503,-0.0843 -0.7605,-0.0843 -0.2744,0 -0.5439,0.0458 -0.8111,0.1348 -0.2695,0.0891 -0.5078,0.2359 -0.7196,0.4404 -0.2118,0.2046 -0.3827,0.4742 -0.5102,0.8111 -0.13,0.3345 -0.195,0.7533 -0.195,1.2515 0,0.361 0.0482,0.6955 0.1444,1.0012 0.0963,0.3056 0.2407,0.5703 0.4308,0.7918 0.1902,0.2238 0.4284,0.3971 0.7148,0.5222 0.2864,0.1252 0.6186,0.1877 0.994,0.1877 0.272,0 0.5487,-0.0288 0.8255,-0.089 0.2768,-0.0578 0.5463,-0.142 0.8111,-0.2503l0 0.9097c-0.0795,0.0482 -0.1854,0.0939 -0.3153,0.142 -0.1276,0.0458 -0.2696,0.0867 -0.426,0.1228 -0.154,0.0361 -0.3201,0.0625 -0.4934,0.0842 -0.1733,0.0217 -0.3465,0.0313 -0.5222,0.0313 -0.4501,0 -0.8761,-0.0674 -1.278,-0.2046 -0.4019,-0.1348 -0.7533,-0.3441 -1.0541,-0.6257 -0.3009,-0.284 -0.5391,-0.6402 -0.7124,-1.0734 -0.1757,-0.4308 -0.2623,-0.9434 -0.2623,-1.5355 0,-0.4428 0.0457,-0.8399 0.1371,-1.1937 0.0939,-0.3514 0.2191,-0.6619 0.3779,-0.929 0.1612,-0.2695 0.3466,-0.4958 0.5608,-0.6835 0.2142,-0.1901 0.4428,-0.3442 0.6835,-0.4621 0.243,-0.1203 0.4933,-0.207 0.7509,-0.2623 0.2599,-0.053 0.5102,-0.0794 0.7557,-0.0794zm6.9866 6.8879c-0.0939,0.0361 -0.2359,0.0722 -0.4284,0.1059 -0.195,0.0313 -0.4236,0.0506 -0.6931,0.0554 -0.3514,0 -0.6571,-0.0433 -0.9146,-0.13 -0.2599,-0.0866 -0.4741,-0.2118 -0.6474,-0.373 -0.1709,-0.1637 -0.2984,-0.3586 -0.3827,-0.5897 -0.0842,-0.231 -0.1275,-0.4861 -0.1275,-0.7677l0 -4.0769 -1.29 0 0 -0.9362 1.29 0 0 -1.834 1.0926 0 0 1.834 2.0024 0 0 0.9362 -2.0024 0 0 3.906c0,0.1565 0.0217,0.3009 0.0674,0.4308 0.0457,0.1324 0.1155,0.2455 0.2118,0.3418 0.0963,0.0963 0.219,0.1733 0.3706,0.2262 0.1493,0.0554 0.3298,0.0818 0.5415,0.0818 0.1469,0 0.3009,-0.012 0.4621,-0.0361 0.1637,-0.024 0.3129,-0.0529 0.4477,-0.0914l0 0.9169zm4.1395 0.1613c-0.3489,0 -0.6594,-0.0361 -0.9386,-0.1131 -0.2767,-0.0746 -0.5198,-0.1805 -0.7292,-0.3153 -0.2094,-0.1372 -0.3875,-0.3008 -0.5319,-0.491 -0.1468,-0.1901 -0.2623,-0.3995 -0.3465,-0.6233 -0.065,-0.1709 -0.1132,-0.3562 -0.1396,-0.5584 -0.0289,-0.2021 -0.0434,-0.4235 -0.0434,-0.6618l0 -4.1106 1.0927 0 0 4.1034c0,0.3706 0.0505,0.6811 0.1492,0.9314 0.1131,0.2816 0.2936,0.503 0.5463,0.6642 0.2503,0.1637 0.5728,0.2455 0.9627,0.2455 0.414,0 0.7461,-0.0915 0.9964,-0.2695 0.2527,-0.1781 0.4308,-0.4188 0.5391,-0.7197 0.0818,-0.2286 0.1203,-0.515 0.1203,-0.8519l0 -4.1034 1.0927 0 0 4.1178c0,0.2238 -0.0121,0.4356 -0.0386,0.6306 -0.0264,0.1949 -0.0673,0.3754 -0.1227,0.5391 -0.0842,0.231 -0.2022,0.4428 -0.349,0.6377 -0.1492,0.195 -0.3297,0.3635 -0.5463,0.5055 -0.2166,0.1395 -0.4669,0.2503 -0.7509,0.3273 -0.284,0.077 -0.6065,0.1155 -0.9627,0.1155zm8.4885 -5.9855l-0.0843 0c-0.2599,0 -0.5126,0.0241 -0.7629,0.0698 -0.2479,0.0482 -0.4813,0.1204 -0.7003,0.2166 -0.219,0.0963 -0.4164,0.2142 -0.5921,0.3562 -0.1781,0.1396 -0.3249,0.3057 -0.4404,0.5006l0 4.6666 -1.0951 0 0 -6.6978 0.8472 0 0.2118 1.0637 0.0216 0c0.1084,-0.1733 0.2407,-0.3345 0.3972,-0.4861 0.1588,-0.1493 0.3345,-0.2816 0.5318,-0.3947 0.1974,-0.1132 0.414,-0.2022 0.6498,-0.2648 0.2359,-0.0625 0.4814,-0.0938 0.7413,-0.0938 0.0457,0 0.0939,0 0.1444,0.0024 0.0481,0.0024 0.0915,0.0048 0.13,0.0096l0 1.0517zm5.083 5.0685l-0.0265 0c-0.0891,0.1132 -0.2022,0.2263 -0.3394,0.337 -0.1371,0.1083 -0.2936,0.207 -0.4717,0.296 -0.1781,0.0866 -0.3754,0.1564 -0.5848,0.207 -0.2118,0.0529 -0.438,0.077 -0.6787,0.077 -0.3225,0 -0.6209,-0.0481 -0.8905,-0.1444 -0.2719,-0.0963 -0.503,-0.2359 -0.6979,-0.4236 -0.195,-0.1853 -0.3466,-0.4115 -0.4549,-0.6787 -0.1083,-0.2695 -0.1636,-0.5728 -0.1636,-0.9097 0,-0.3345 0.0601,-0.633 0.1805,-0.8953 0.1203,-0.2647 0.2888,-0.4862 0.5054,-0.6715 0.2142,-0.1829 0.4741,-0.3225 0.7773,-0.4211 0.3033,-0.0987 0.6378,-0.1493 1.006,-0.1493 0.3466,0.0048 0.6691,0.0361 0.9651,0.0915 0.1546,0.0302 0.3004,0.0635 0.4373,0.1006l0 0.8913c-0.106,-0.0232 -0.2188,-0.0459 -0.3386,-0.0677 -0.2768,-0.053 -0.5824,-0.0795 -0.917,-0.0843 -0.4644,0 -0.8279,0.0987 -1.0926,0.2961 -0.2623,0.1973 -0.3947,0.5005 -0.3947,0.9097 0,0.207 0.0337,0.3875 0.0987,0.5415 0.065,0.1564 0.1564,0.284 0.2719,0.3851 0.1156,0.101 0.2503,0.1757 0.4092,0.2262 0.1564,0.0481 0.3249,0.0746 0.503,0.0746 0.2358,0 0.4548,-0.0361 0.657,-0.1035 0.2022,-0.0674 0.3803,-0.1492 0.5391,-0.2431 0.1564,-0.0938 0.2912,-0.1877 0.4019,-0.2815 0.1107,-0.0939 0.1902,-0.1685 0.2431,-0.2191 0,-0.9244 0,-1.7921 0,-2.6786 0,-0.1829 -0.012,-0.3466 -0.0361,-0.4862 -0.0217,-0.142 -0.0626,-0.2671 -0.1203,-0.3754 -0.1204,-0.2262 -0.3153,-0.4116 -0.5849,-0.5608 -0.2671,-0.1468 -0.6281,-0.2214 -1.0854,-0.2214 -0.3369,0 -0.657,0.0313 -0.9554,0.0963 -0.2985,0.0626 -0.5945,0.1516 -0.8905,0.2623l0 -0.9145c0.1107,-0.0578 0.2455,-0.1107 0.3971,-0.1589 0.154,-0.0505 0.3129,-0.0914 0.4837,-0.1275 0.1685,-0.0361 0.3466,-0.0626 0.5343,-0.0819 0.1901,-0.0192 0.3779,-0.0264 0.5656,-0.0264 0.6763,0 1.2298,0.1179 1.6606,0.3586 0.4284,0.2406 0.7389,0.5559 0.9266,0.9506 0.0698,0.1516 0.1203,0.3177 0.1516,0.4982 0.0313,0.1805 0.0457,0.3803 0.0457,0.5969l0 4.4692 -0.9169 0 -0.1203 -0.7413zm2.941 -3.2851l3.1094 0 0 1.0228 -3.1094 0 0 -1.0228zm7.634 -1.9109c-0.2478,0 -0.4789,0.0505 -0.6931,0.1492 -0.2142,0.0987 -0.4019,0.231 -0.5607,0.4019 -0.1613,0.1685 -0.2889,0.3682 -0.3875,0.5945 -0.2874,0.6657 -0.3312,2.1023 -0.0458,2.758 0.1276,0.2985 0.3057,0.5391 0.5271,0.7269 0.2238,0.1853 0.4862,0.3201 0.787,0.4043 0.3008,0.0842 0.6257,0.1275 0.9723,0.1275 0.3634,0 0.6931,-0.0288 0.9916,-0.089 0.2984,-0.0578 0.5968,-0.142 0.8929,-0.2503l0 0.9097c-0.2407,0.118 -0.5367,0.2094 -0.8905,0.2792 -0.3514,0.0674 -0.7293,0.1011 -1.1336,0.1011 -0.4789,0 -0.929,-0.0602 -1.3501,-0.1829 -0.4212,-0.1228 -0.7894,-0.3201 -1.1047,-0.5921 -0.3153,-0.2719 -0.5632,-0.6281 -0.7437,-1.0685 -0.3852,-0.935 -0.3763,-2.2375 -0.0168,-3.1793 0.1684,-0.45 0.3947,-0.8231 0.6763,-1.1239 0.2815,-0.3009 0.6064,-0.5271 0.9723,-0.6787 0.3682,-0.1492 0.7509,-0.2238 1.1504,-0.2238 0.3754,0 0.7268,0.0601 1.0541,0.1853 0.3273,0.1251 0.6089,0.3201 0.8496,0.5896 0.2406,0.2672 0.4284,0.6137 0.5679,1.0349 0.1372,0.4236 0.207,0.9314 0.207,1.5234 0,0.0578 0,0.1059 0,0.1444 0,0.041 -0.0024,0.1324 -0.0072,0.272l-4.1869 0 0 -0.9386 3.0317 0c0,-0.2623 -0.0337,-0.5078 -0.1035,-0.7365 -0.0674,-0.2262 -0.1685,-0.4259 -0.2984,-0.5944 -0.1324,-0.1709 -0.2937,-0.3033 -0.4862,-0.3995 -0.1925,-0.0963 -0.4163,-0.1444 -0.6715,-0.1444z"/>
  <path class="fil0" d="M24.1549 32.5566c-1.4526,-0.1374 -2.8828,-0.3151 -4.2789,-0.5317l0 -14.0368c0,-1.8944 0.2544,-3.4967 0.7634,-4.7879 0.4995,-1.3006 1.197,-2.3656 2.0829,-3.2045 0.8859,-0.8388 1.9227,-1.4514 3.1196,-1.8472 1.197,-0.3959 2.4882,-0.5938 3.8643,-0.5938 0.8859,0 1.6964,0.0377 2.441,0.1319 0.7446,0.0943 1.3007,0.198 1.6494,0.3016l0 3.6192c-0.5561,-0.1037 -1.1593,-0.1885 -1.8285,-0.245 -0.6597,-0.0566 -1.2252,-0.0849 -1.7059,-0.0849 -0.9613,0 -1.819,0.1226 -2.5824,0.3582 -0.7634,0.245 -1.4043,0.622 -1.9227,1.1498 -0.5183,0.5184 -0.9142,1.2158 -1.1875,2.0641 -0.2733,0.8576 -0.4147,1.8944 -0.4147,3.1102l0 14.5968zm1.6754 -3.6898l6.1371 0 0 2.0188 -6.1371 0 0 -2.0188zm0 -5.7792l6.1371 0 0 2.0188 -6.1371 0 0 -2.0188zm15.0673 -3.7716c-0.4893,0 -0.9453,0.0998 -1.368,0.2945 -0.4228,0.1948 -0.7933,0.4561 -1.1068,0.7933 -0.3183,0.3325 -0.57,0.7268 -0.7648,1.1733 -0.6186,1.4334 -0.7766,3.8674 -0.0902,5.4436 0.2517,0.589 0.6032,1.064 1.0402,1.4345 0.4418,0.3658 0.9596,0.6318 1.5533,0.798 0.5938,0.1663 1.235,0.2518 1.919,0.2518 0.7173,0 1.3681,-0.057 1.9571,-0.1758 0.589,-0.114 1.178,-0.2802 1.7623,-0.494l0 1.7955c-0.475,0.2328 -1.0593,0.4133 -1.7576,0.5511 -0.6935,0.133 -1.4392,0.1995 -2.2373,0.1995 -0.9452,0 -1.8335,-0.1188 -2.6648,-0.3611 -0.8312,-0.2422 -1.558,-0.6317 -2.1802,-1.1685 -0.6223,-0.5367 -1.1116,-1.2397 -1.4678,-2.109 -0.7605,-1.8454 -0.7427,-4.4161 -0.0333,-6.2749 0.3325,-0.8882 0.779,-1.6245 1.3348,-2.2183 0.5558,-0.5937 1.197,-1.0402 1.919,-1.3395 0.7268,-0.2945 1.4821,-0.4417 2.2706,-0.4417 0.741,0 1.4345,0.1187 2.0805,0.3657 0.646,0.247 1.2018,0.6318 1.6768,1.1638 0.475,0.5272 0.8455,1.2113 1.121,2.0425 0.2708,0.836 0.4085,1.8383 0.4085,3.0068 0,0.114 0,0.209 0,0.285 0,0.0808 -0.0047,0.2613 -0.0142,0.5368l-7.3973 0 0 -1.8525 5.1172 0c0,-0.5178 -0.0665,-1.0023 -0.2042,-1.4536 -0.133,-0.4465 -0.3325,-0.8407 -0.589,-1.1732 -0.2613,-0.3373 -0.5795,-0.5985 -0.9595,-0.7886 -0.3801,-0.19 -0.8218,-0.285 -1.3253,-0.285z"/>
  <path class="fil3" d="M33.2237 11.1385c-0.5561,-0.1037 -1.1593,-0.1885 -1.8285,-0.245 -0.6597,-0.0566 -1.2252,-0.0849 -1.7059,-0.0849 -0.9613,0 -1.819,0.1226 -2.5824,0.3582 -0.7634,0.245 -1.4043,0.622 -1.9227,1.1498 -0.5183,0.5184 -0.9142,1.2158 -1.1875,2.0641 -0.2733,0.8576 -0.4147,1.8944 -0.4147,3.1102 0,8.4912 0,7.231 0,30.2634l-4.2789 0c0,-17.7976 0,-22.4652 0,-30.2351 0,-1.8944 0.2544,-3.4967 0.7634,-4.7879 0.4995,-1.3006 1.197,-2.3656 2.0829,-3.2045 0.8859,-0.8388 1.9227,-1.4514 3.1196,-1.8472 1.197,-0.3959 2.4882,-0.5938 3.8643,-0.5938 0.8859,0 1.6964,0.0377 2.441,0.1319 0.7446,0.0943 1.3007,0.198 1.6494,0.3016l0 3.6192zm-7.9663 34.597l20.6593 0 0 2.0188 -20.6593 0 0 -2.0188zm0 -5.7792l20.6593 0 0 2.0188 -20.6593 0 0 -2.0188zm0 -5.7792l20.6593 0 0 2.0188 -20.6593 0 0 -2.0188zm0 -5.7792l6.1371 0 0 2.0188 -6.1371 0 0 -2.0188zm0 -5.7792l6.1371 0 0 2.0188 -6.1371 0 0 -2.0188zm15.0673 -3.7716c-0.4893,0 -0.9453,0.0998 -1.368,0.2945 -0.4228,0.1948 -0.7933,0.4561 -1.1068,0.7933 -0.3183,0.3325 -0.57,0.7268 -0.7648,1.1733 -0.6186,1.4334 -0.7766,3.8674 -0.0902,5.4436 0.2517,0.589 0.6032,1.064 1.0402,1.4345 0.4418,0.3658 0.9596,0.6318 1.5533,0.798 0.5938,0.1663 1.235,0.2518 1.919,0.2518 0.7173,0 1.3681,-0.057 1.9571,-0.1758 0.589,-0.114 1.178,-0.2802 1.7623,-0.494l0 1.7955c-0.475,0.2328 -1.0593,0.4133 -1.7576,0.5511 -0.6935,0.133 -1.4392,0.1995 -2.2373,0.1995 -0.9452,0 -1.8335,-0.1188 -2.6648,-0.3611 -0.8312,-0.2422 -1.558,-0.6317 -2.1802,-1.1685 -0.6223,-0.5367 -1.1116,-1.2397 -1.4678,-2.109 -0.7605,-1.8454 -0.7427,-4.4161 -0.0333,-6.2749 0.3325,-0.8882 0.779,-1.6245 1.3348,-2.2183 0.5558,-0.5937 1.197,-1.0402 1.919,-1.3395 0.7268,-0.2945 1.4821,-0.4417 2.2706,-0.4417 0.741,0 1.4345,0.1187 2.0805,0.3657 0.646,0.247 1.2018,0.6318 1.6768,1.1638 0.475,0.5272 0.8455,1.2113 1.121,2.0425 0.2708,0.836 0.4085,1.8383 0.4085,3.0068 0,0.114 0,0.209 0,0.285 0,0.0808 -0.0047,0.2613 -0.0142,0.5368l-7.3973 0 0 -1.8525 5.1172 0c0,-0.5178 -0.0665,-1.0023 -0.2042,-1.4536 -0.133,-0.4465 -0.3325,-0.8407 -0.589,-1.1732 -0.2613,-0.3373 -0.5795,-0.5985 -0.9595,-0.7886 -0.3801,-0.19 -0.8218,-0.285 -1.3253,-0.285z"/>
  <path class="fil3" d="M10.433 49.8989c-0.142,-0.0265 -0.2961,-0.0482 -0.4669,-0.0626 -0.1685,-0.0144 -0.3129,-0.0217 -0.4357,-0.0217 -0.2454,0 -0.4644,0.0313 -0.6594,0.0915 -0.1949,0.0626 -0.3586,0.1588 -0.491,0.2936 -0.1323,0.1324 -0.2334,0.3105 -0.3032,0.5271 -0.0698,0.219 -0.1059,0.4837 -0.1059,0.7942 0,2.5759 0,5.152 0,7.7279l-1.0926 0c0,-4.5447 0,-5.7366 0,-7.7207 0,-0.4837 0.0649,-0.8929 0.1949,-1.2226 0.1276,-0.3321 0.3057,-0.6041 0.5319,-0.8183 0.2262,-0.2142 0.491,-0.3706 0.7966,-0.4717 0.3057,-0.1011 0.6354,-0.1516 0.9868,-0.1516 0.2262,0 0.4332,0.0096 0.6233,0.0337 0.1901,0.024 0.3321,0.0505 0.4212,0.077l0 0.9242zm-2.11 2.6522l1.6431 0 0 0.9362 -1.6431 0 0 -0.9362zm6.7333 5.9565l-0.0265 0c-0.0891,0.1132 -0.2022,0.2263 -0.3394,0.337 -0.1371,0.1083 -0.2936,0.207 -0.4717,0.296 -0.1781,0.0866 -0.3754,0.1564 -0.5848,0.207 -0.2118,0.0529 -0.438,0.077 -0.6787,0.077 -0.3225,0 -0.6209,-0.0481 -0.8905,-0.1444 -0.2719,-0.0963 -0.503,-0.2359 -0.6979,-0.4236 -0.195,-0.1853 -0.3466,-0.4115 -0.4549,-0.6787 -0.1083,-0.2695 -0.1636,-0.5728 -0.1636,-0.9097 0,-0.3345 0.0601,-0.633 0.1805,-0.8953 0.1203,-0.2647 0.2888,-0.4862 0.5054,-0.6715 0.2142,-0.1829 0.4741,-0.3225 0.7773,-0.4211 0.3033,-0.0987 0.6378,-0.1493 1.006,-0.1493 0.3466,0.0048 0.6691,0.0361 0.9651,0.0915 0.1546,0.0302 0.3004,0.0635 0.4373,0.1006l0 0.8913c-0.106,-0.0232 -0.2188,-0.0459 -0.3386,-0.0677 -0.2768,-0.053 -0.5824,-0.0795 -0.917,-0.0843 -0.4644,0 -0.8279,0.0987 -1.0926,0.2961 -0.2623,0.1973 -0.3947,0.5005 -0.3947,0.9097 0,0.207 0.0337,0.3875 0.0987,0.5415 0.065,0.1564 0.1564,0.284 0.2719,0.3851 0.1156,0.101 0.2503,0.1757 0.4092,0.2262 0.1564,0.0481 0.3249,0.0746 0.503,0.0746 0.2358,0 0.4548,-0.0361 0.657,-0.1035 0.2022,-0.0674 0.3803,-0.1492 0.5391,-0.2431 0.1564,-0.0938 0.2912,-0.1877 0.4019,-0.2815 0.1107,-0.0939 0.1902,-0.1685 0.2431,-0.2191 0,-0.9244 0,-1.7921 0,-2.6786 0,-0.1829 -0.012,-0.3466 -0.0361,-0.4862 -0.0217,-0.142 -0.0626,-0.2671 -0.1203,-0.3754 -0.1204,-0.2262 -0.3153,-0.4116 -0.5849,-0.5608 -0.2671,-0.1468 -0.6281,-0.2214 -1.0854,-0.2214 -0.3369,0 -0.657,0.0313 -0.9554,0.0963 -0.2985,0.0626 -0.5945,0.1516 -0.8905,0.2623l0 -0.9145c0.1107,-0.0578 0.2455,-0.1107 0.3971,-0.1589 0.154,-0.0505 0.3129,-0.0914 0.4837,-0.1275 0.1685,-0.0361 0.3466,-0.0626 0.5343,-0.0819 0.1901,-0.0192 0.3779,-0.0264 0.5656,-0.0264 0.6763,0 1.2298,0.1179 1.6606,0.3586 0.4284,0.2406 0.7389,0.5559 0.9266,0.9506 0.0698,0.1516 0.1203,0.3177 0.1516,0.4982 0.0313,0.1805 0.0457,0.3803 0.0457,0.5969l0 4.4692 -0.9169 0 -0.1203 -0.7413zm6.0288 -6.1322c0.3249,0 0.6329,0.0337 0.9289,0.101 0.2985,0.0674 0.5512,0.1637 0.763,0.2864l0 0.9098c-0.2961,-0.1131 -0.568,-0.1974 -0.8183,-0.2551 -0.2479,-0.0554 -0.503,-0.0843 -0.7605,-0.0843 -0.2744,0 -0.5439,0.0458 -0.8111,0.1348 -0.2695,0.0891 -0.5078,0.2359 -0.7196,0.4404 -0.2118,0.2046 -0.3827,0.4742 -0.5102,0.8111 -0.13,0.3345 -0.195,0.7533 -0.195,1.2515 0,0.361 0.0482,0.6955 0.1444,1.0012 0.0963,0.3056 0.2407,0.5703 0.4308,0.7918 0.1902,0.2238 0.4284,0.3971 0.7148,0.5222 0.2864,0.1252 0.6186,0.1877 0.994,0.1877 0.272,0 0.5487,-0.0288 0.8255,-0.089 0.2768,-0.0578 0.5463,-0.142 0.8111,-0.2503l0 0.9097c-0.0795,0.0482 -0.1854,0.0939 -0.3153,0.142 -0.1276,0.0458 -0.2696,0.0867 -0.426,0.1228 -0.154,0.0361 -0.3201,0.0625 -0.4934,0.0842 -0.1733,0.0217 -0.3465,0.0313 -0.5222,0.0313 -0.4501,0 -0.8761,-0.0674 -1.278,-0.2046 -0.4019,-0.1348 -0.7533,-0.3441 -1.0541,-0.6257 -0.3009,-0.284 -0.5391,-0.6402 -0.7124,-1.0734 -0.1757,-0.4308 -0.2623,-0.9434 -0.2623,-1.5355 0,-0.4428 0.0457,-0.8399 0.1371,-1.1937 0.0939,-0.3514 0.2191,-0.6619 0.3779,-0.929 0.1612,-0.2695 0.3466,-0.4958 0.5608,-0.6835 0.2142,-0.1901 0.4428,-0.3442 0.6835,-0.4621 0.243,-0.1203 0.4933,-0.207 0.7509,-0.2623 0.2599,-0.053 0.5102,-0.0794 0.7557,-0.0794zm6.9866 6.8879c-0.0939,0.0361 -0.2359,0.0722 -0.4284,0.1059 -0.195,0.0313 -0.4236,0.0506 -0.6931,0.0554 -0.3514,0 -0.6571,-0.0433 -0.9146,-0.13 -0.2599,-0.0866 -0.4741,-0.2118 -0.6474,-0.373 -0.1709,-0.1637 -0.2984,-0.3586 -0.3827,-0.5897 -0.0842,-0.231 -0.1275,-0.4861 -0.1275,-0.7677l0 -4.0769 -1.29 0 0 -0.9362 1.29 0 0 -1.834 1.0926 0 0 1.834 2.0024 0 0 0.9362 -2.0024 0 0 3.906c0,0.1565 0.0217,0.3009 0.0674,0.4308 0.0457,0.1324 0.1155,0.2455 0.2118,0.3418 0.0963,0.0963 0.219,0.1733 0.3706,0.2262 0.1493,0.0554 0.3298,0.0818 0.5415,0.0818 0.1469,0 0.3009,-0.012 0.4621,-0.0361 0.1637,-0.024 0.3129,-0.0529 0.4477,-0.0914l0 0.9169zm4.1395 0.1613c-0.3489,0 -0.6594,-0.0361 -0.9386,-0.1131 -0.2767,-0.0746 -0.5198,-0.1805 -0.7292,-0.3153 -0.2094,-0.1372 -0.3875,-0.3008 -0.5319,-0.491 -0.1468,-0.1901 -0.2623,-0.3995 -0.3465,-0.6233 -0.065,-0.1709 -0.1132,-0.3562 -0.1396,-0.5584 -0.0289,-0.2021 -0.0434,-0.4235 -0.0434,-0.6618l0 -4.1106 1.0927 0 0 4.1034c0,0.3706 0.0505,0.6811 0.1492,0.9314 0.1131,0.2816 0.2936,0.503 0.5463,0.6642 0.2503,0.1637 0.5728,0.2455 0.9627,0.2455 0.414,0 0.7461,-0.0915 0.9964,-0.2695 0.2527,-0.1781 0.4308,-0.4188 0.5391,-0.7197 0.0818,-0.2286 0.1203,-0.515 0.1203,-0.8519l0 -4.1034 1.0927 0 0 4.1178c0,0.2238 -0.0121,0.4356 -0.0386,0.6306 -0.0264,0.1949 -0.0673,0.3754 -0.1227,0.5391 -0.0842,0.231 -0.2022,0.4428 -0.349,0.6377 -0.1492,0.195 -0.3297,0.3635 -0.5463,0.5055 -0.2166,0.1395 -0.4669,0.2503 -0.7509,0.3273 -0.284,0.077 -0.6065,0.1155 -0.9627,0.1155zm8.4885 -5.9855l-0.0843 0c-0.2599,0 -0.5126,0.0241 -0.7629,0.0698 -0.2479,0.0482 -0.4813,0.1204 -0.7003,0.2166 -0.219,0.0963 -0.4164,0.2142 -0.5921,0.3562 -0.1781,0.1396 -0.3249,0.3057 -0.4404,0.5006l0 4.6666 -1.0951 0 0 -6.6978 0.8472 0 0.2118 1.0637 0.0216 0c0.1084,-0.1733 0.2407,-0.3345 0.3972,-0.4861 0.1588,-0.1493 0.3345,-0.2816 0.5318,-0.3947 0.1974,-0.1132 0.414,-0.2022 0.6498,-0.2648 0.2359,-0.0625 0.4814,-0.0938 0.7413,-0.0938 0.0457,0 0.0939,0 0.1444,0.0024 0.0481,0.0024 0.0915,0.0048 0.13,0.0096l0 1.0517zm5.083 5.0685l-0.0265 0c-0.0891,0.1132 -0.2022,0.2263 -0.3394,0.337 -0.1371,0.1083 -0.2936,0.207 -0.4717,0.296 -0.1781,0.0866 -0.3754,0.1564 -0.5848,0.207 -0.2118,0.0529 -0.438,0.077 -0.6787,0.077 -0.3225,0 -0.6209,-0.0481 -0.8905,-0.1444 -0.2719,-0.0963 -0.503,-0.2359 -0.6979,-0.4236 -0.195,-0.1853 -0.3466,-0.4115 -0.4549,-0.6787 -0.1083,-0.2695 -0.1636,-0.5728 -0.1636,-0.9097 0,-0.3345 0.0601,-0.633 0.1805,-0.8953 0.1203,-0.2647 0.2888,-0.4862 0.5054,-0.6715 0.2142,-0.1829 0.4741,-0.3225 0.7773,-0.4211 0.3033,-0.0987 0.6378,-0.1493 1.006,-0.1493 0.3466,0.0048 0.6691,0.0361 0.9651,0.0915 0.1546,0.0302 0.3004,0.0635 0.4373,0.1006l0 0.8913c-0.106,-0.0232 -0.2188,-0.0459 -0.3386,-0.0677 -0.2768,-0.053 -0.5824,-0.0795 -0.917,-0.0843 -0.4644,0 -0.8279,0.0987 -1.0926,0.2961 -0.2623,0.1973 -0.3947,0.5005 -0.3947,0.9097 0,0.207 0.0337,0.3875 0.0987,0.5415 0.065,0.1564 0.1564,0.284 0.2719,0.3851 0.1156,0.101 0.2503,0.1757 0.4092,0.2262 0.1564,0.0481 0.3249,0.0746 0.503,0.0746 0.2358,0 0.4548,-0.0361 0.657,-0.1035 0.2022,-0.0674 0.3803,-0.1492 0.5391,-0.2431 0.1564,-0.0938 0.2912,-0.1877 0.4019,-0.2815 0.1107,-0.0939 0.1902,-0.1685 0.2431,-0.2191 0,-0.9244 0,-1.7921 0,-2.6786 0,-0.1829 -0.012,-0.3466 -0.0361,-0.4862 -0.0217,-0.142 -0.0626,-0.2671 -0.1203,-0.3754 -0.1204,-0.2262 -0.3153,-0.4116 -0.5849,-0.5608 -0.2671,-0.1468 -0.6281,-0.2214 -1.0854,-0.2214 -0.3369,0 -0.657,0.0313 -0.9554,0.0963 -0.2985,0.0626 -0.5945,0.1516 -0.8905,0.2623l0 -0.9145c0.1107,-0.0578 0.2455,-0.1107 0.3971,-0.1589 0.154,-0.0505 0.3129,-0.0914 0.4837,-0.1275 0.1685,-0.0361 0.3466,-0.0626 0.5343,-0.0819 0.1901,-0.0192 0.3779,-0.0264 0.5656,-0.0264 0.6763,0 1.2298,0.1179 1.6606,0.3586 0.4284,0.2406 0.7389,0.5559 0.9266,0.9506 0.0698,0.1516 0.1203,0.3177 0.1516,0.4982 0.0313,0.1805 0.0457,0.3803 0.0457,0.5969l0 4.4692 -0.9169 0 -0.1203 -0.7413zm2.941 -3.2851l3.1094 0 0 1.0228 -3.1094 0 0 -1.0228zm7.634 -1.9109c-0.2478,0 -0.4789,0.0505 -0.6931,0.1492 -0.2142,0.0987 -0.4019,0.231 -0.5607,0.4019 -0.1613,0.1685 -0.2889,0.3682 -0.3875,0.5945 -0.2874,0.6657 -0.3312,2.1023 -0.0458,2.758 0.1276,0.2985 0.3057,0.5391 0.5271,0.7269 0.2238,0.1853 0.4862,0.3201 0.787,0.4043 0.3008,0.0842 0.6257,0.1275 0.9723,0.1275 0.3634,0 0.6931,-0.0288 0.9916,-0.089 0.2984,-0.0578 0.5968,-0.142 0.8929,-0.2503l0 0.9097c-0.2407,0.118 -0.5367,0.2094 -0.8905,0.2792 -0.3514,0.0674 -0.7293,0.1011 -1.1336,0.1011 -0.4789,0 -0.929,-0.0602 -1.3501,-0.1829 -0.4212,-0.1228 -0.7894,-0.3201 -1.1047,-0.5921 -0.3153,-0.2719 -0.5632,-0.6281 -0.7437,-1.0685 -0.3852,-0.935 -0.3763,-2.2375 -0.0168,-3.1793 0.1684,-0.45 0.3947,-0.8231 0.6763,-1.1239 0.2815,-0.3009 0.6064,-0.5271 0.9723,-0.6787 0.3682,-0.1492 0.7509,-0.2238 1.1504,-0.2238 0.3754,0 0.7268,0.0601 1.0541,0.1853 0.3273,0.1251 0.6089,0.3201 0.8496,0.5896 0.2406,0.2672 0.4284,0.6137 0.5679,1.0349 0.1372,0.4236 0.207,0.9314 0.207,1.5234 0,0.0578 0,0.1059 0,0.1444 0,0.041 -0.0024,0.1324 -0.0072,0.272l-4.1869 0 0 -0.9386 3.0317 0c0,-0.2623 -0.0337,-0.5078 -0.1035,-0.7365 -0.0674,-0.2262 -0.1685,-0.4259 -0.2984,-0.5944 -0.1324,-0.1709 -0.2937,-0.3033 -0.4862,-0.3995 -0.1925,-0.0963 -0.4163,-0.1444 -0.6715,-0.1444z"/>
 </g>
</svg>
