<?xml version="1.0" encoding="UTF-8" standalone="no"?>
<!-- Generator: Adobe Illustrator 12.0.0, SVG Export Plug-In . SVG Version: 6.00 Build 51448)  -->
<svg height="135.511" id="Layer_1" inkscape:version="0.43" sodipodi:docbase="/home/naught101/Desktop" sodipodi:docname="question.svg" sodipodi:version="0.32" space="preserve" style="overflow:visible;enable-background:new 0 0 135.55 135.511;" version="1.1" viewBox="0 0 135.55 135.511" width="135.55" xmlns="http://www.w3.org/2000/svg" xmlns:cc="http://web.resource.org/cc/" xmlns:dc="http://purl.org/dc/elements/1.1/" xmlns:inkscape="http://www.inkscape.org/namespaces/inkscape" xmlns:rdf="http://www.w3.org/1999/02/22-rdf-syntax-ns#" xmlns:sodipodi="http://inkscape.sourceforge.net/DTD/sodipodi-0.dtd" xmlns:svg="http://www.w3.org/2000/svg">
  <metadata>
    <rdf:RDF xmlns:cc="http://web.resource.org/cc/" xmlns:dc="http://purl.org/dc/elements/1.1/" xmlns:rdf="http://www.w3.org/1999/02/22-rdf-syntax-ns#">
      <cc:Work rdf:about="">
        <dc:title>Question Mark</dc:title>
        <dc:description>adapted from "Attenzione rotondo" by Architetto Francesco Rollandin (also on OCAL</dc:description>
        <dc:subject>
          <rdf:Bag>
            <rdf:li>question</rdf:li>
            <rdf:li>warn</rdf:li>
            <rdf:li>warning</rdf:li>
            <rdf:li>Question mark</rdf:li>
          </rdf:Bag>
        </dc:subject>
        <dc:publisher>
          <cc:Agent rdf:about="http://www.openclipart.org/">
            <dc:title>Open Clip Art Library</dc:title>
          </cc:Agent>
        </dc:publisher>
        <dc:creator>
          <cc:Agent>
            <dc:title>naught101</dc:title>
          </cc:Agent>
        </dc:creator>
        <dc:rights>
          <cc:Agent>
            <dc:title>naught101</dc:title>
          </cc:Agent>
        </dc:rights>
        <dc:date/>
        <dc:format>image/svg+xml</dc:format>
        <dc:type rdf:resource="http://purl.org/dc/dcmitype/StillImage"/>
        <cc:license rdf:resource="http://web.resource.org/cc/PublicDomain"/>
        <dc:language>en</dc:language>
      </cc:Work>
      <cc:License rdf:about="http://web.resource.org/cc/PublicDomain">
        <cc:permits rdf:resource="http://web.resource.org/cc/Reproduction"/>
        <cc:permits rdf:resource="http://web.resource.org/cc/Distribution"/>
        <cc:permits rdf:resource="http://web.resource.org/cc/DerivativeWorks"/>
      </cc:License>
    </rdf:RDF>
  </metadata>
  <defs id="defs25"/>
  <sodipodi:namedview bordercolor="#666666" borderopacity="1.0" id="base" inkscape:current-layer="Layer_1" inkscape:cx="76.214343" inkscape:cy="71.487924" inkscape:pageopacity="0.0" inkscape:pageshadow="2" inkscape:window-height="712" inkscape:window-width="1020" inkscape:window-x="0" inkscape:window-y="0" inkscape:zoom="4.1472613" pagecolor="#ffffff"/>
  <path d="M135.55,67.732c0,34.533-27.088,64.336-61.504,67.5c-34.428,3.165-66.644-21.045-72.942-55.092  c-6.297-34.04,14.95-68.33,48.31-77.686c33.372-9.357,69.43,8.813,81.738,41.207C134.067,51.334,135.55,59.525,135.55,67.732" id="path3" style="fill:#d05800;fill-opacity:1.0000000"/>
  <radialGradient cx="44.4468" cy="46.3291" gradientUnits="userSpaceOnUse" id="XMLID_2_" r="84.7307">
    <stop id="stop6" offset="0" style="stop-color:#FFC154"/>
    <stop id="stop8" offset="1" style="stop-color:#F29B00"/>
  </radialGradient>
  <path d="M130.755,67.732c0,34.33-28.665,62.995-62.995,62.995c-34.331,0-62.995-28.665-62.995-62.995  c0-34.331,28.664-62.995,62.995-62.995C102.09,4.737,130.755,33.401,130.755,67.732" id="path10" style="fill:url(#XMLID_2_);"/>
  <path d="M124.68,43.246c5.089,29.667-12.629,59.468-41.123,69.176c-30.22,10.297-64.225-4.923-76.863-34.193  c6.073,35.425,42.497,58.713,77.203,49.347C119.728,117.905,139.449,77.414,124.68,43.246" id="path12" style="fill:#F28500;"/>
  <path d="M107.105,39.768c-8.712,1.802-18.743-10.54-26.297-13.679c-14.114-5.867-31.741-3.143-44.526,4.846  c-13.523,8.449-23.141,24.68-24.622,40.611c-0.004,0.045-0.005,0.054-0.002,0.024c0.999-9.647,0.325-18.717,3.999-28.043  c6.087-15.458,19.253-27.563,35.127-32.426c16.41-5.027,34.356-1.828,48.495,7.753C103.643,21.814,120.448,37.005,107.105,39.768" id="path14" style="fill:#FFE000;"/>
  <path d="M 95.933412,32.024555 C 100.25582,45.476784 94.36717,51.77253 91.979998,54.195272 C 87.375741,58.868135 80.794664,65.833414 77.641211,71.588949 C 73.948418,78.328863 67.545694,101.40006 60.859007,82.569783 C 52.854525,60.028484 64.159885,53.882949 69.570349,49.317208 C 73.331201,46.14353 77.941358,38.648964 70.71498,36.237577 C 60.706779,32.897917 55.616131,49.490973 44.268722,46.283185 C 36.904656,44.201444 36.395893,36.120468 38.920178,29.895305 C 46.221466,11.889528 88.541992,9.0209038 95.933412,32.024555 z " id="path16" style="fill:#d05800;fill-opacity:1"/>
  <path d="M 67.4375,18.5 C 55.817137,18.586494 44.530752,23.757032 41.59375,31 C 40.522016,33.643014 40.13962,36.702863 40.6875,38.96875 C 41.23538,41.234637 42.304751,42.720415 45.0625,43.5 C 47.216875,44.109018 48.79428,43.802641 50.5625,42.96875 C 52.33072,42.134859 54.168678,40.651607 56.125,39 C 58.081322,37.348393 60.133084,35.547637 62.65625,34.28125 C 65.179416,33.014863 68.371085,32.414194 71.625,33.5 C 73.945545,34.274348 75.805727,35.695606 76.71875,37.59375 C 77.631773,39.491894 77.550612,41.546092 77.0625,43.28125 C 76.086276,46.751566 73.72758,49.598715 71.4375,51.53125 C 68.461338,54.042751 64.856018,56.358414 62.75,60.5 C 60.643982,64.641586 59.731896,70.806446 63.5625,81.59375 C 64.342679,83.790801 65.105158,85.274115 65.6875,86.09375 C 66.269842,86.913385 66.57772,86.970858 66.4375,86.9375 C 66.29728,86.904142 66.11021,87.015595 66.4375,86.78125 C 66.76479,86.546905 67.353896,85.931302 67.96875,85.03125 C 69.198459,83.231146 70.542521,80.427112 71.75,77.65625 C 72.957479,74.885388 74.03777,72.171861 75.125,70.1875 C 78.616917,63.814217 85.254846,56.876966 89.90625,52.15625 C 91.059406,50.985911 92.72522,49.233037 93.75,46.28125 C 94.77478,43.329463 95.191148,39.142016 93.1875,32.90625 C 91.59093,27.93739 88.183239,24.437012 83.59375,22.03125 C 79.004261,19.625488 73.248001,18.45675 67.4375,18.5 z " id="path3947" style="fill:#ffffff;fill-opacity:1"/>
  <path d="M 81.092631,105.85391 C 81.092631,88.603909 54.341631,88.605909 54.341631,105.85391 C 54.341631,123.10391 81.092631,123.10591 81.092631,105.85391" id="path20" style="fill:#d05800;fill-opacity:1"/>
  <path d="M 77.982631,105.85391 C 77.982631,92.612909 57.450631,92.615909 57.450631,105.85391 C 57.450631,119.09491 77.982631,119.09691 77.982631,105.85391" id="path22" style="fill:#ffffff"/>
</svg>