<?xml version="1.0" encoding="utf-8"?>
<!-- Generator: Adobe Illustrator 15.0.2, SVG Export Plug-In . SVG Version: 6.00 Build 0)  -->
<!DOCTYPE svg PUBLIC "-//W3C//DTD SVG 1.1//EN" "http://www.w3.org/Graphics/SVG/1.1/DTD/svg11.dtd">
<svg version="1.1" id="Capa_1" xmlns="http://www.w3.org/2000/svg" xmlns:xlink="http://www.w3.org/1999/xlink" x="0px" y="0px"
	 width="595.28px" height="841.89px" viewBox="0 0 595.28 841.89" enable-background="new 0 0 595.28 841.89" xml:space="preserve">
<path fill-rule="evenodd" clip-rule="evenodd" fill="#98141B" d="M297.645,234.066c-44.702,0-80.919-34.75-80.919-79.37
	c0-44.62,36.218-80.838,80.919-80.838c44.62,0,80.838,36.218,80.838,80.838C378.483,199.316,342.265,234.066,297.645,234.066z"/>
<path fill="#FFFFFF" d="M297.64,109.898c22.32,0,36.72,2.809,43.272,8.28c6.552,5.544,9.864,17.784,9.864,36.576v4.104l0,0H297.64
	v-12.023h38.88l0,0c-0.648-10.368-2.664-16.92-6.049-19.729c-4.031-3.456-15.047-5.184-32.832-5.184V109.898L297.64,109.898z
	 M297.64,187.298c16.344,0,27-0.937,31.824-2.88c4.896-1.944,7.272-6.049,7.272-12.456l0,0h14.04l0,0
	c0,11.447-3.313,18.863-9.864,22.248c-6.552,3.384-20.952,5.04-43.272,5.04V187.298z M297.568,199.25
	c-22.32,0-36.72-2.736-43.272-8.208c-6.552-5.473-9.792-17.641-9.792-36.36c0-18.792,3.24-30.96,9.792-36.504
	c6.552-5.472,20.952-8.28,43.272-8.28h0.072v12.024h-0.072c-17.784,0-28.8,1.728-32.976,5.184c-3.24,2.809-5.256,9.36-5.904,19.729
	l0,0h38.952v12.023h-39.168l0,0c0.432,12.313,2.448,20.088,6.264,23.328c4.104,3.384,15.048,5.112,32.832,5.112h0.072v11.952
	H297.568z"/>
<path fill-rule="evenodd" clip-rule="evenodd" fill="none" stroke="#98141B" stroke-miterlimit="10" d="M297.685,241.808
	c-49.021,0-88.739-38.109-88.739-87.042c0-48.932,39.718-88.65,88.739-88.65c48.932,0,88.65,39.718,88.65,88.65
	C386.335,203.699,346.617,241.808,297.685,241.808z"/>
</svg>
