<?xml version="1.0" encoding="UTF-8" standalone="no"?>
<!-- Created with Inkscape (http://www.inkscape.org/) -->

<svg
   width="29.842348mm"
   height="49.429501mm"
   viewBox="0 0 29.842348 49.429501"
   version="1.1"
   id="svg1"
   xmlns:inkscape="http://www.inkscape.org/namespaces/inkscape"
   xmlns:sodipodi="http://sodipodi.sourceforge.net/DTD/sodipodi-0.dtd"
   xmlns="http://www.w3.org/2000/svg"
   xmlns:svg="http://www.w3.org/2000/svg">
  <sodipodi:namedview
     id="namedview1"
     pagecolor="#ffffff"
     bordercolor="#666666"
     borderopacity="1.0"
     inkscape:showpageshadow="2"
     inkscape:pageopacity="0.0"
     inkscape:pagecheckerboard="0"
     inkscape:deskcolor="#d1d1d1"
     inkscape:document-units="mm" />
  <defs
     id="defs1" />
  <g
     inkscape:label="Layer 1"
     inkscape:groupmode="layer"
     id="layer1"
     transform="translate(-91.279467,-67.952055)">
    <path
       d="m 91.279464,116.08402 c 1.05304,0.66516 2.45533,1.10437 3.77825,1.24989 1.65365,0.17463 3.24908,-0.13758 4.63285,-0.82497 0.550336,-0.47598 0.859896,-1.17263 1.053046,-2.18572 l 0.74083,-3.65893 0.40481,-0.57837 h 9.24984 l 0.8546,4.2373 c 0.19315,1.01309 0.50271,1.70974 1.05304,2.18572 1.38642,0.68739 2.97921,0.9996 4.63286,0.82497 1.32556,-0.14023 2.39183,-0.58473 3.44222,-1.24989 v -4.59846 -22.84809 c 0,-0.36751 0,-0.73713 0,-1.00013 -5.23875,-5.19932 -9.06991,-12.74127 -10.70504,-19.66939 l -3.46868,-0.0159 -0.0926,28.12468 c 0.91546,0.11827 1.81769,0.50165 2.58233,1.20147 1.47373,1.35176 1.9103,3.547 1.05569,5.34935 -1.2991,2.74822 -4.81541,3.55653 -7.20196,1.63618 -1.60337,-1.29117 -2.159,-3.54383 -1.33085,-5.42608 0.59796,-1.36763 1.74096,-2.2688 3.02683,-2.62678 l 0.008,-20.69756 -1.0451,0.0447 c -0.94192,2.78315 -2.21457,5.5028 -3.83646,8.10709 -0.283106,0.45694 -0.576786,0.90117 -0.875766,1.34197 -0.15875,0.2495 -0.32279,0.49874 -0.48948,0.7448 -0.0132,0.019 -0.0291,0.0415 -0.0423,0.0638 -0.84666,1.23348 -1.79387,2.38389 -2.82575,3.46075 -1.42874,1.57559 -2.96862,3.01016 -4.6011,4.30768 v 22.50625 z"
       fill="#c33400"
       id="path70"
       style="stroke-width:0.264583" />
  </g>
</svg>
