<?xml version="1.0" encoding="UTF-8"?>
<svg xmlns="http://www.w3.org/2000/svg" xml:space="preserve" width="70mm" height="70mm" style="shape-rendering:geometricPrecision; text-rendering:geometricPrecision; image-rendering:optimizeQuality; fill-rule:evenodd; clip-rule:evenodd"
viewBox="0 0 70 70">
 <defs>
  <style type="text/css">
   <![CDATA[
    .str1 {stroke:white;stroke-width:0.3528;stroke-linejoin:round}
    .str0 {stroke:#FF6600;stroke-width:1.4111}
    .fil4 {fill:white}
    .fil3 {fill:#FF6600}
    .fil0 {fill:#FF7D00}
    .fil1 {fill:#FF9900}
    .fil2 {fill:#FF7D00}
   ]]>
  </style>
 </defs>
 <g id="Capa_x0020_1">
  <metadata id="CorelCorpID_0Corel-Layer"/>
  <g id="_209722792">
   <path id="_269653472" class="fil0 str0" d="M4.048 14.414c0,-5.7013 4.6647,-10.366 10.366,-10.366 17.1793,0 34.3587,0 51.538,0 0,20.6346 0,41.2694 0,61.904 -20.6346,0 -41.2694,0 -61.904,0l0 -51.538z"/>
   <path id="_269653120" class="fil1" d="M4.8842 28.0357l0 -13.1694c0,-5.5473 4.5387,-10.086 10.086,-10.086 16.7151,0 33.4305,0 50.1456,0 0,7.9518 0,15.9038 0,23.8556 -0.0434,0.0316 -0.0867,0.0633 -0.1306,0.0945 -6.7075,4.7796 -18.0661,6.6728 -30.9465,6.6728 -11.85,0 -23.5351,-2.6611 -29.1545,-7.3675z"/>
   <path id="_269652768" class="fil2" d="M57.0154 32.5297c-4.294,1.3664 -9.3419,2.2006 -14.8474,2.5961l3.6086 -3.609 7.6446 0 0 -9.673 -9.6735 0 0 7.6455 -3.6322 3.632 0 -12.8454c0,-1.1145 0.9126,-2.0256 2.0268,-2.0256 4.9575,0 9.9151,0 14.8731,0l0 14.2794zm-29.3007 2.6197c-5.35,-0.4309 -10.4404,-1.4042 -14.6915,-2.8594l0 -20.2463c6.7781,0 13.557,0 20.3352,0 1.5233,0 2.7705,1.2462 2.7705,2.7709l0 17.5615 -4.9665 -4.9657 0 -10.4525 -13.225 0 0 13.225 10.4525 0 4.9657 4.9665 -5.6409 0z"/>
   <path id="_210014184" class="fil3" d="M42.3417 57.6835c-1.2243,0 -2.2262,-1.002 -2.2262,-2.2255l0 -14.1096 3.9902 3.9897 0 8.3981 10.6253 0 0 -10.6262 -8.3972 0 -3.9903 -3.9892 14.1094 0c1.2247,0 2.2266,1.0013 2.2266,2.2253 0,5.4463 0,10.8919 0,16.3374 -5.4468,0 -10.8921,0 -16.3378,0zm-0.1743 -22.5571l-0.023 0.023 12.8441 0c1.1148,0 2.0269,-0.9116 2.0269,-2.026l0 -0.5932c-4.2941,1.3666 -9.3421,2.2006 -14.848,2.5962zm-14.4572 0.023l-11.916 0c-1.5247,0 -2.771,-1.2473 -2.771,-2.7705l0 -0.0886c4.2501,1.455 9.3385,2.4279 14.687,2.8591zm5.9003 24.9719c1.3851,0 2.5184,-1.1324 2.5184,-2.518l0 -15.9627 -4.5136 4.5136 0 9.5012 -12.021 0 0 -12.0216 9.5006 0 4.5136 -4.513 -15.9623 0c-1.3853,0 -2.5183,1.1331 -2.5183,2.5182 0,6.161 0,12.322 0,18.4823 6.1606,0 12.3215,0 18.4826,0z"/>
   <path id="_209722856" class="fil4 str1" d="M41.4903 56.601c-1.2243,0 -2.2262,-1.002 -2.2262,-2.2255l0 -14.1096 3.9902 3.9897 0 8.3981 10.6253 0 0 -10.6262 -8.3974 0 -3.9901 -3.9892 14.1094 0c1.2247,0 2.2266,1.0013 2.2266,2.2253 0,5.4463 0,10.8919 0,16.3374 -5.4468,0 -10.8921,0 -16.3378,0zm-0.1994 -39.4332c-1.1142,0 -2.0268,0.9111 -2.0268,2.0256l0 12.8454 3.6322 -3.632 0 -7.6455 9.6735 0 0 9.673 -7.6446 0 -3.6322 3.6326 12.8441 0c1.1148,0 2.0269,-0.9116 2.0269,-2.026 0,-4.9582 0,-9.9164 0,-14.8731 -4.958,0 -9.9156,0 -14.8731,0zm-8.7839 -6.2066c1.5233,0 2.7705,1.2462 2.7705,2.7709l0 17.5615 -4.9665 -4.9657 0 -10.4525 -13.225 0 0 13.225 10.4525 0 4.9657 4.9665 -17.5614 0c-1.5247,0 -2.771,-1.2473 -2.771,-2.7705 0,-6.7782 0,-13.5572 0,-20.3352 6.7781,0 13.557,0 20.3352,0zm0.2521 48.0776c1.3851,0 2.5184,-1.1324 2.5184,-2.518l0 -15.9627 -4.5136 4.5136 0 9.5012 -12.021 0 0 -12.0216 9.5006 0 4.5136 -4.513 -15.9623 0c-1.3853,0 -2.5183,1.1331 -2.5183,2.5182 0,6.161 0,12.322 0,18.4823 6.1606,0 12.3215,0 18.4826,0z"/>
  </g>
 </g>
</svg>
