<?xml version="1.0" encoding="UTF-8"?>
<svg xmlns="http://www.w3.org/2000/svg" xml:space="preserve" width="70mm" height="70mm" style="shape-rendering:geometricPrecision; text-rendering:geometricPrecision; image-rendering:optimizeQuality; fill-rule:evenodd; clip-rule:evenodd"
viewBox="0 0 70 70">
 <defs>
  <style type="text/css">
   <![CDATA[
    .str0 {stroke:#FF6600;stroke-width:1.4111}
    .fil3 {fill:white}
    .fil2 {fill:#EB5E00}
    .fil0 {fill:#FF7D00}
    .fil1 {fill:#FF9900}
   ]]>
  </style>
 </defs>
 <g id="Capa_x0020_1">
  <metadata id="CorelCorpID_0Corel-Layer"/>
  <g id="_269906584">
   <path id="_269959144" class="fil0 str0" d="M4.048 14.414c0,-5.7013 4.6647,-10.366 10.366,-10.366 17.1793,0 34.3587,0 51.538,0 0,20.6346 0,41.2694 0,61.904 -20.6346,0 -41.2694,0 -61.904,0l0 -51.538z"/>
   <path id="_269911920" class="fil1" d="M4.8842 28.0357l0 -13.1694c0,-5.5473 4.5387,-10.086 10.086,-10.086 16.7151,0 33.4305,0 50.1456,0 0,7.9518 0,15.9038 0,23.8556 -0.0434,0.0316 -0.0867,0.0633 -0.1306,0.0945 -6.7075,4.7796 -18.0661,6.6728 -30.9465,6.6728 -11.85,0 -23.5351,-2.6611 -29.1545,-7.3675z"/>
   <path id="_269904920" class="fil2" d="M16.0948 33.22l3.3798 12.9874c0.5939,1.4737 4.1725,12.6859 15.5838,10.9932l13.1046 -3.7234c2.9247,-0.6121 2.7692,-5.6343 -1.5519,-5.051l-5.8033 1.2091c-1.0343,0.2528 -4.7456,0.224 -5.8321,-4.5094l-2.2119 -9.7334c-5.8931,-0.0947 -11.692,-0.8443 -16.669,-2.1725zm35.3038 14.212c0.7044,5.3008 8.0551,5.5173 7.1482,-1.7511l-2.0497 -12.9899c-2.2621,0.688 -4.7249,1.233 -7.3462,1.6488l2.2477 13.0922z"/>
   <path id="_269907160" class="fil0" d="M56.4971 32.691c-2.2621,0.688 -4.7249,1.233 -7.3462,1.6488l-0.4689 -2.7311c-0.4353,-3.4379 -3.852,-5.4784 -5.0442,-5.568l-7.015 -0.8856c-6.1414,-1.3678 -5.0042,-8.3517 -0.5742,-7.4404l9.9548 2.4137c8.835,1.1021 9.8214,8.0986 10.0906,10.008l0.4031 2.5546zm-23.7333 2.7015c-5.893,-0.0947 -11.6922,-0.8442 -16.669,-2.1724l-3.1725 -12.191c-2.69,-12.7499 16.2895,-6.7266 17.0006,1.8618l2.8409 12.5016z"/>
   <path id="_269654032" class="fil3" d="M29.28 22.3555c-0.7111,-8.5884 -19.6906,-14.6117 -17.0006,-1.8618l6.5523 25.1783c0.5939,1.4737 4.1725,12.6859 15.5838,10.9932l13.1046 -3.7234c2.9247,-0.6121 2.7692,-5.6343 -1.5519,-5.051l-5.8033 1.2091c-1.0343,0.2528 -4.7456,0.224 -5.8321,-4.5094l-5.0528 -22.235zm21.4757 24.5411c0.7044,5.3008 8.0551,5.5173 7.1482,-1.7511l-2.4528 -15.5445c-0.2692,-1.9094 -1.2556,-8.9059 -10.0906,-10.008l-9.9548 -2.4137c-4.43,-0.9113 -5.5672,6.0726 0.5742,7.4404l7.015 0.8856c1.1922,0.0896 4.6089,2.1301 5.0442,5.568l2.7166 15.8233z"/>
  </g>
 </g>
</svg>
