<?xml version="1.0" encoding="UTF-8"?>
<svg xmlns="http://www.w3.org/2000/svg" xml:space="preserve" width="70mm" height="70mm" style="shape-rendering:geometricPrecision; text-rendering:geometricPrecision; image-rendering:optimizeQuality; fill-rule:evenodd; clip-rule:evenodd"
viewBox="0 0 70 70">
 <defs>
  <style type="text/css">
   <![CDATA[
    .str0 {stroke:#092457;stroke-width:1.4111}
    .fil3 {fill:white}
    .fil2 {fill:#02215C}
    .fil0 {fill:#06348C}
    .fil1 {fill:#1C4FAD}
   ]]>
  </style>
 </defs>
 <g id="Capa_x0020_1">
  <metadata id="CorelCorpID_0Corel-Layer"/>
  <g id="_275101736">
   <path id="_276305728" class="fil0 str0" d="M4.048 14.414c0,-5.7013 4.6647,-10.366 10.366,-10.366 17.1793,0 34.3587,0 51.538,0 0,20.6346 0,41.2694 0,61.904 -20.6346,0 -41.2694,0 -61.904,0l0 -51.538z"/>
   <path id="_276305208" class="fil1" d="M4.8842 28.0357l0 -13.1694c0,-5.5473 4.5387,-10.086 10.086,-10.086 16.7151,0 33.4305,0 50.1456,0 0,7.9518 0,15.9038 0,23.8556 -0.0434,0.0316 -0.0867,0.0633 -0.1306,0.0945 -6.7075,4.7796 -18.0661,6.6728 -30.9465,6.6728 -11.85,0 -23.5351,-2.6611 -29.1545,-7.3675z"/>
   <path id="_276305016" class="fil2" d="M7.0316 39.0339c8.3145,-2.8512 16.6175,-3.6794 24.8834,2.713 3.4177,-2.8743 7.7029,-5.4729 12.3803,-6.798 -3.2589,0.3098 -6.6994,0.4543 -10.2566,0.4543 -0.9012,0 -1.8015,-0.0154 -2.6982,-0.0459l-0.0238 0.0217 -0.0541 -0.0242c-4.7808,-0.1674 -9.4586,-0.7645 -13.6396,-1.7504 -4.7663,0.7598 -8.7714,2.8442 -10.5914,5.4295zm43.9379 -5.008c0.9564,0.0119 1.9195,0.0878 2.8854,0.237 -0.4211,-0.1963 -0.8457,-0.3834 -1.272,-0.5625 -0.5298,0.1147 -1.0677,0.2232 -1.6134,0.3255z"/>
   <path id="_276304824" class="fil0" d="M44.2953 34.9489c2.1568,-0.6111 4.3972,-0.9513 6.6742,-0.923 0.5457,-0.1023 1.0836,-0.2108 1.6134,-0.3255 -7.4686,-3.1368 -15.6471,-3.5509 -21.2424,1.6569 0.8967,0.0305 1.797,0.0459 2.6982,0.0459 3.5572,0 6.9977,-0.1445 10.2566,-0.4543zm-13.0327 0.4059c-4.4745,-2.0476 -9.3634,-2.432 -13.6396,-1.7504 4.181,0.9859 8.8588,1.583 13.6396,1.7504z"/>
   <path id="_273902064" class="fil2" d="M27.9425 20.6314c9.1985,-0.8938 12.0555,-0.7656 18.8818,3.5366 6.7732,-3.6936 12.3272,-2.6761 17.1321,-2.3383 -5.0682,-2.1558 -10.6658,-3.8514 -17.3761,-1.4936 -6.6341,-2.9833 -13.1072,-3.6095 -18.6378,0.2953z"/>
   <path id="_271610456" class="fil3" d="M27.437 20.0315c9.1985,-0.8938 12.0555,-0.7656 18.8818,3.5366 6.7732,-3.6936 12.3272,-2.6761 17.1321,-2.3383 -5.0682,-2.1558 -10.6658,-3.8514 -17.3761,-1.4936 -6.6341,-2.9833 -13.1072,-3.6095 -18.6378,0.2953zm-20.9109 18.4025c8.3145,-2.8512 16.6175,-3.6794 24.8834,2.713 5.6557,-4.7565 13.6875,-8.759 21.9399,-7.484 -7.8082,-3.6394 -16.6233,-4.4132 -22.5382,1.1161 -9.4726,-4.3665 -20.8256,-1.2593 -24.2851,3.6549z"/>
   <path id="_274058024" class="fil2" d="M42.756 45.3759l19.1475 0 0 1.242 -19.1475 0 0 -1.242zm0 5.08l19.1475 0 0 1.242 -19.1475 0 0 -1.242zm0 10.16l19.1475 0 0 1.242 -19.1475 0 0 -1.242zm0 -5.08l19.1475 0 0 1.242 -19.1475 0 0 -1.242z"/>
   <path id="_275101776" class="fil3" d="M42.2505 44.776l19.1475 0 0 1.242 -19.1475 0 0 -1.242zm0 5.08l19.1475 0 0 1.242 -19.1475 0 0 -1.242zm0 10.16l19.1475 0 0 1.242 -19.1475 0 0 -1.242zm0 -5.08l19.1475 0 0 1.242 -19.1475 0 0 -1.242z"/>
  </g>
 </g>
</svg>
